<?xml version="1.0" encoding="utf-8"?>
<!-- Generator: Adobe Illustrator 17.1.0, SVG Export Plug-In . SVG Version: 6.00 Build 0)  -->
<!DOCTYPE svg PUBLIC "-//W3C//DTD SVG 1.1//EN" "http://www.w3.org/Graphics/SVG/1.1/DTD/svg11.dtd">
<svg version="1.1" xmlns="http://www.w3.org/2000/svg" xmlns:xlink="http://www.w3.org/1999/xlink" x="0px" y="0px"
	 viewBox="0 0 100 100" enable-background="new 0 0 100 100" xml:space="preserve">
<g id="Layer_1" display="none">
	<path display="inline" d="M33.9,54.9c0,1.8,1.5,3.3,3.2,3.3s3.3-1.5,3.3-3.3c0-1.8-1.5-3.3-3.3-3.3S33.9,53.1,33.9,54.9z"/>
	<path display="inline" d="M93.9,57.1L65,57.2l0-2.1c0-0.4-0.3-0.7-0.7-0.7c-0.4,0-0.7,0.3-0.7,0.7l0,2.1l-0.2,0l0-2.2
		c0-0.4-0.3-0.7-0.7-0.7c-0.4,0-0.7,0.3-0.7,0.7l0,2.2l-0.3,0l0-2c0-0.4-0.3-0.7-0.7-0.7c-0.4,0-0.7,0.3-0.7,0.7l0,2l-0.2,0l0-2.1
		c0-0.4-0.3-0.7-0.7-0.7c-0.4,0-0.7,0.3-0.7,0.7l0,2.1h-0.3l0-1.9c0-0.4-0.3-0.7-0.7-0.7c-0.4,0-0.7,0.3-0.7,0.7l0,1.9l-0.2,0l0-2
		c0-0.4-0.3-0.7-0.7-0.7c-0.4,0-0.7,0.3-0.7,0.7l0,2h-0.3l0-1.8c0-0.4-0.3-0.7-0.7-0.7c-0.4,0-0.7,0.3-0.7,0.7l0,1.8H54l0-1.9
		c0-0.4-0.3-0.7-0.7-0.7c-0.4,0-0.7,0.3-0.7,0.7l0,1.9l-0.3,0l0-1c0-0.3-0.2-0.5-0.5-0.5c-0.3,0-0.5,0.2-0.5,0.5l0,1.2
		c-0.4,0.2-0.6,0.5-0.6,0.9c0,0.4,0.3,0.7,0.6,0.9l0,1.2c0,0.3,0.2,0.5,0.5,0.5c0.1,0,0.3-0.1,0.4-0.2c0.1-0.1,0.1-0.2,0.1-0.3l0-1
		l0.3,0l0,1.8c0,0.4,0.3,0.7,0.7,0.7c0.2,0,0.4-0.1,0.5-0.2c0.1-0.1,0.2-0.3,0.2-0.4l0-1.8l0.2,0l0,1.9c0,0.4,0.3,0.7,0.7,0.7
		c0.2,0,0.4-0.1,0.5-0.2c0.1-0.1,0.2-0.3,0.2-0.4l0-1.9l0.3,0l0,1.7c0,0.4,0.3,0.7,0.7,0.7c0.2,0,0.4-0.1,0.5-0.2
		c0.1-0.1,0.2-0.3,0.2-0.4l0-1.7l0.2,0l0,1.8c0,0.4,0.3,0.7,0.7,0.7c0.2,0,0.4-0.1,0.5-0.2c0.1-0.1,0.2-0.3,0.2-0.4l0-1.8l0.3,0
		l0,1.6c0,0.4,0.3,0.7,0.7,0.7c0.2,0,0.4-0.1,0.5-0.2c0.1-0.1,0.2-0.3,0.2-0.4l0-1.7h0.2l0,1.7c0,0.4,0.3,0.7,0.7,0.7
		c0.2,0,0.4-0.1,0.5-0.2c0.1-0.1,0.2-0.3,0.2-0.4l0-1.7l0.3,0l0,1.5c0,0.4,0.3,0.7,0.7,0.7c0.2,0,0.4-0.1,0.5-0.2
		c0.1-0.1,0.2-0.3,0.2-0.4l0-1.5h0.2l0,1.6c0,0.4,0.3,0.7,0.7,0.7c0.2,0,0.4-0.1,0.5-0.2c0.1-0.1,0.2-0.3,0.2-0.4l0-1.6l28.9-0.1
		c0.3,0,0.6-0.1,0.8-0.4c0.2-0.2,0.3-0.5,0.3-0.7C95,57.6,94.5,57.1,93.9,57.1z"/>
	<path display="inline" d="M77.8,34.5c0,0-3.6,5.1-10.2,6.8c0,0,3.3-2.4,0.4-9.9c0,0-6.2,7.5-11.1,8.2c0,0,1.9-4,0.5-8.2
		c0,0-5,6.6-10.5,6.6c-1.2,0-2.7-9.2-2.7-9.2s-1.5,3.3-3.8,5.8c-3.2,3.7-7,4.9-8.7,5.2c0.1,0,0.3,0,0.4,0C5.6,45,5,71.1,5,71.1
		c1.7-12.7,9.4-18.9,18.7-21.6c-1.9,2-3,4.6-3,7.5c0,6,4.9,10.9,11,10.9c6.1,0,11-4.9,11-10.9c0-3.9-2.1-7.3-5.2-9.2
		c12.5,0,24.2,3.6,25.9,4.8C63.4,52.5,79,46.4,77.8,34.5z M34.5,55.7c-1.6,0-2.9-1.3-2.9-2.9c0-1.6,1.3-2.9,2.9-2.9
		c1.6,0,2.9,1.3,2.9,2.9C37.4,54.4,36.1,55.7,34.5,55.7z"/>
</g>
<g id="Layer_2" display="none">
	<g id="make-up" display="inline">
		<path d="M65.6,52.3c-5.3-4.7-12.6-7.7-20.7-8.4c-1.3-0.1-2.6-0.2-3.8-0.2C26,43.7,13.9,52,12.9,63c-1.1,12.1,11.5,23.2,28,24.7
			c1.3,0.1,2.6,0.2,3.8,0.2c15.1,0,27.2-8.3,28.3-19.3C73.5,62.7,70.9,57,65.6,52.3z M63.4,75.2c-0.5,0.3-0.9,0.4-1.1,1.5l-1-1.1
			c-4.1,3.7-10.6,6-17.9,6c-1.1,0-2.2-0.1-3.3-0.1c-6.5-0.6-12.4-2.9-16.7-6.5c-4.3-3.6-6.5-8.1-6.1-12.6
			c0.8-8.4,10.5-14.7,22.6-14.7c1.1,0,2.2,0.1,3.3,0.2c13.4,1.2,23.6,9.8,22.7,19c-0.1,1.2-0.4,2.4-0.9,3.6c1.3,1.4,2.3,2.5,2.6,2.9
			L63.4,75.2z"/>
		<path d="M49.8,6.7c-2.4,0-4.4,0.7-6,2c-6.3,5.4-2.5,20,8.4,32.7c7.9,9.2,17.8,15.2,25.1,15.2c2.4,0,4.4-0.7,6-2
			c6.3-5.4,2.5-20-8.4-32.7C67,12.6,57.2,6.7,49.8,6.7z M79.2,47.8c-1.2,1.1-2.8,1.7-4.8,1.7c-5.2,0-12.4-4-18.3-10.2
			c-4-4.3-7-9-8.4-13.4c-1.4-4.5-1-8.1,1.1-10.1c1.2-1.1,2.8-1.7,4.8-1.7c5.2,0,12.4,4,18.3,10.2c4,4.3,7,9,8.4,13.4
			C81.8,42.2,81.4,45.8,79.2,47.8z"/>
		<g>
			<path d="M52.5,66.2c0,0-4.5-3.7-5.6-4.9c-1.1-1.2-2-3.6-1.7-3.4c0.3,0.1-0.3-0.7-0.3-0.7s-0.6-1.3,0.2-1.9c0.8-0.6,0.5-1,1-1.1
				c0.5-0.1,1.5-0.7,2.8,0c1.3,0.7,2.6,0.8,3.5,1.8c1,1,3.2,3.6,4.1,4.8c0.9,1.3,1.3,1.6,1.1,2.1c-0.2,0.4-3.5,1.4-3.7,1.7
				c-0.2,0.3-0.7,0.4-0.9,0.8C52.8,65.8,52.5,66.2,52.5,66.2z"/>
			<path d="M62.5,77.2L52.3,66.5c-0.4-0.4-0.6-0.8-0.6-1.2c0-0.4,0.3-0.7,0.7-1l3.8-1.8c0.4-0.2,0.7-0.3,1-0.3
				c0.3,0,0.6,0.1,0.8,0.4c0.4,0.4,8.9,9.6,9.8,10.7l0.2,0.3l-4.6,2c-0.1,0-0.1,0.1-0.2,0.1c-0.3,0.2-0.6,0.4-0.7,1.1L62.5,77.2z
				 M57.3,62.7c-0.2,0-0.4,0.1-0.8,0.2l-3.7,1.7c-0.3,0.2-0.4,0.4-0.5,0.6c0,0.2,0.1,0.5,0.4,0.8l9.5,10.1c0.2-0.6,0.5-0.8,0.8-1
				c0.1,0,0.1-0.1,0.2-0.1l0.1,0l4-1.7c-1.6-1.9-9.5-10.3-9.5-10.4C57.6,62.8,57.4,62.7,57.3,62.7z"/>
			<path d="M81.3,87.4L67.9,73.5c-0.5-0.6-2.5,0.2-3.9,1.1c-1,0.7-1.9,1.5-1.7,1.9l1.1,1.1l12.6,13.1c0.1,0.1,0.3,0.2,0.4,0.3
				c0.4,0.3,1,0.4,1.3,0.2l3.6-3C81.4,88.1,81.6,87.8,81.3,87.4z"/>
		</g>
	</g>
</g>
<g id="Layer_3">
	<g id="Layer_2_1_">
		<path d="M65.5,26.7c0.1,0,0.1-0.1,0.1-0.1c0-0.6-7-1.1-15.6-1.1c-8.6,0-15.6,0.5-15.6,1.1c0,0,0,0.1,0.1,0.1
			c-0.1,0-0.1,0.1-0.1,0.2v61.2c0,0.1,0.1,0.1,0.1,0.2c-0.1,0-0.1,0.1-0.1,0.1c0,0.6,7,1.1,15.6,1.1c8.6,0,15.6-0.5,15.6-1.1
			c0,0,0-0.1-0.1-0.1c0.1,0,0.1-0.1,0.1-0.2V26.9C65.7,26.8,65.6,26.7,65.5,26.7z M61.3,65.5c0,1.7-1.4,3.1-3.1,3.1H41.8
			c-1.7,0-3.1-1.4-3.1-3.1V35.8c0-1.7,1.4-3.1,3.1-3.1h16.4c1.7,0,3.1,1.4,3.1,3.1C61.3,35.8,61.3,65.5,61.3,65.5z"/>
		<path d="M59.8,24.8c0.1,0,0.2,0,0.2,0V19c0,0,0,0-0.1,0c0,0,0,0,0-0.1c0-0.4-4.5-0.7-10-0.7c-5.5,0-10,0.3-10,0.7c0,0,0,0,0,0.1
			c0,0-0.1,0-0.1,0v5.8c0,0,0.1,0,0.2,0C40.2,24.8,59.8,24.8,59.8,24.8z"/>
		<path d="M56.7,17.6c0.1,0,0.1,0,0.1,0v-3.2h2.9c0,0,0,0,0,0c-0.5,0-0.9-0.6-0.9-1.2s0.4-1.2,0.9-1.2c0,0,0,0,0,0h-2.9V10
			c0,0,0,0,0,0c0,0,0,0,0-0.1C56.8,9.4,53.8,9,50,9c-3.8,0-6.8,0.4-6.8,0.9c0,0,0,0,0,0.1c0,0,0,0,0,0v7.5c0,0,0.1,0,0.1,0
			C43.3,17.6,56.7,17.6,56.7,17.6z"/>
		<path d="M59.8,14.4C59.8,14.4,59.8,14.4,59.8,14.4C59.8,14.4,59.8,14.4,59.8,14.4c0.6,0,1-0.5,1-1.2s-0.4-1.2-0.9-1.2
			c0,0,0,0-0.1,0c0,0,0,0,0,0V14.4z"/>
		<path d="M58.9,13.1c0,0.7,0.4,1.2,0.9,1.2c0,0,0,0,0,0v-2.4c0,0,0,0,0,0C59.3,12,58.9,12.5,58.9,13.1z"/>
		<path d="M52.8,41.1L52.8,41.1L50,38.4l-2.8,2.8l0,0c-0.7,0.7-1.2,1.7-1.2,2.8c0,0,0,0,0,0c0,1.1,0.4,2.1,1.2,2.8
			c0.7,0.7,1.7,1.2,2.8,1.2c2.2,0,4-1.8,4-4c0,0,0,0,0,0C54,42.8,53.5,41.8,52.8,41.1z"/>
	</g>
</g>
</svg>
