<?xml version="1.0" encoding="utf-8"?>
<!-- Generator: Adobe Illustrator 17.1.0, SVG Export Plug-In . SVG Version: 6.00 Build 0)  -->
<!DOCTYPE svg PUBLIC "-//W3C//DTD SVG 1.1//EN" "http://www.w3.org/Graphics/SVG/1.1/DTD/svg11.dtd">
<svg version="1.1" id="Layer_1" xmlns="http://www.w3.org/2000/svg" xmlns:xlink="http://www.w3.org/1999/xlink" x="0px" y="0px"
	 viewBox="0 0 32 32" enable-background="new 0 0 32 32" xml:space="preserve">
<rect x="13.7" y="21.5" fill="#7E4E24" width="2.1" height="2.1"/>
<rect x="11.1" y="21.5" fill="#ECE2D1" width="2.1" height="2.1"/>
<rect x="8.6" y="21.5" fill="#74B8B0" width="2.1" height="2.1"/>
<rect x="16.2" y="21.5" fill="#422918" width="2.1" height="2.1"/>
<rect x="18.8" y="21.5" fill="#485156" width="2.1" height="2.1"/>
<rect x="21.3" y="21.5" fill="#94A5B0" width="2.1" height="2.1"/>
<g>
	<path fill="#485156" d="M1.3,12.4c0.1,0.9,0.8,1.1,1.1,1.1c0.6,0,1.1-0.4,1.1-1c0-0.8-0.7-0.9-1.3-1.1c-0.4-0.1-1.4-0.4-1.4-1.4
		c0-1,0.8-1.5,1.6-1.5c0.7,0,1.5,0.4,1.5,1.4H3.3c-0.1-0.4-0.2-0.9-1-0.9c-0.5,0-1,0.4-1,0.9c0,0.7,0.5,0.8,1.4,1.1
		C3.2,11.2,4,11.5,4,12.5c0,0.9-0.7,1.6-1.7,1.6c-0.9,0-1.7-0.6-1.7-1.6L1.3,12.4L1.3,12.4z"/>
	<path fill="#485156" d="M9,14H8.5v-0.8c-0.3,0.6-0.9,0.9-1.6,0.9c-1.3,0-2.1-1-2.1-2.1c0-1.2,0.8-2.1,2.1-2.1
		c0.8,0,1.4,0.5,1.6,0.9V10H9V14z M5.3,12c0,0.7,0.5,1.6,1.6,1.6c0.7,0,1.2-0.4,1.4-1c0.1-0.2,0.1-0.4,0.1-0.6c0-0.2,0-0.4-0.1-0.6
		c-0.2-0.5-0.8-0.9-1.4-0.9C6,10.4,5.3,11.1,5.3,12L5.3,12L5.3,12z"/>
	<path fill="#485156" d="M10.2,8.5h0.5V14h-0.5V8.5z"/>
	<path fill="#485156" d="M13.6,14h-0.6l-1.6-4h0.6l1.3,3.3l1.3-3.3h0.6L13.6,14z"/>
	<path fill="#485156" d="M19.8,14h-0.5v-0.8c-0.3,0.6-0.9,0.9-1.6,0.9c-1.3,0-2.1-1-2.1-2.1c0-1.2,0.8-2.1,2.1-2.1
		c0.8,0,1.4,0.5,1.6,0.9V10h0.5V14z M16.1,12c0,0.7,0.5,1.6,1.6,1.6c0.7,0,1.2-0.4,1.4-1c0.1-0.2,0.1-0.4,0.1-0.6
		c0-0.2,0-0.4-0.1-0.6c-0.2-0.5-0.7-0.9-1.4-0.9C16.8,10.4,16.1,11.1,16.1,12L16.1,12z"/>
	<path fill="#485156" d="M21.3,10.4h-0.8V10h0.8V8.5h0.5V10h0.9v0.4h-0.9V14h-0.5V10.4z"/>
	<path fill="#485156" d="M23.1,12c0-1.1,0.8-2.1,2.1-2.1c1.3,0,2.1,1,2.1,2.1c0,1.1-0.8,2.1-2.1,2.1C23.9,14.1,23.1,13.1,23.1,12
		L23.1,12z M23.6,12c0,0.9,0.7,1.6,1.6,1.6c0.9,0,1.6-0.7,1.6-1.6c0-0.9-0.7-1.6-1.6-1.6C24.3,10.4,23.6,11.1,23.6,12L23.6,12z"/>
	<path fill="#485156" d="M28.3,10h0.5v0.6c0.3-0.6,0.8-0.7,1.3-0.8v0.5H30c-0.8,0-1.2,0.5-1.2,1.4V14h-0.5L28.3,10L28.3,10z"/>
	<path fill="#485156" d="M30.8,8.5h0.5v0.8h-0.5V8.5z M30.8,10h0.5v4h-0.5V10z"/>
</g>
<g>
	<g>
		<path fill="#485156" d="M7.2,16c0.2,0,0.3,0,0.4,0.1c0.1,0.1,0.2,0.2,0.2,0.3c0,0.1-0.1,0.3-0.1,0.3c-0.1,0.1-0.2,0.1-0.4,0.1H7
			v0.6H6.8V16L7.2,16L7.2,16z M7,16.7h0.2c0.1,0,0.2,0,0.3-0.1c0.1,0,0.1-0.1,0.1-0.2c0-0.1,0-0.2-0.1-0.2c-0.1,0-0.1-0.1-0.3-0.1H7
			L7,16.7L7,16.7z"/>
		<path fill="#485156" d="M8,16.4h0.1v0.2c0.1-0.2,0.2-0.2,0.3-0.2v0.1h0c-0.2,0-0.3,0.1-0.3,0.4v0.6H8L8,16.4L8,16.4z"/>
		<path fill="#485156" d="M8.6,16.9c0-0.3,0.2-0.5,0.5-0.5c0.3,0,0.5,0.3,0.5,0.5c0,0.3-0.2,0.5-0.5,0.5C8.8,17.5,8.6,17.2,8.6,16.9
			L8.6,16.9z M8.7,16.9c0,0.2,0.2,0.4,0.4,0.4c0.2,0,0.4-0.2,0.4-0.4c0-0.2-0.2-0.4-0.4-0.4C8.9,16.5,8.7,16.7,8.7,16.9L8.7,16.9z"
			/>
		<path fill="#485156" d="M10,16.5H9.9v-0.1H10v-0.1c0-0.3,0.3-0.3,0.4-0.3v0.1c-0.1,0-0.2,0-0.2,0.2v0.1h0.2v0.1h-0.2v0.9H10V16.5z
			"/>
		<path fill="#485156" d="M11.6,17.4h-0.1v-0.2c-0.1,0.1-0.2,0.2-0.4,0.2c-0.3,0-0.4-0.2-0.4-0.5v-0.6h0.1V17c0,0.2,0.1,0.4,0.3,0.4
			c0.2,0,0.3-0.1,0.3-0.3v-0.6h0.1L11.6,17.4L11.6,17.4z"/>
		<path fill="#485156" d="M12,16.4h0.1v0.2c0.1-0.1,0.2-0.2,0.3-0.2c0.1,0,0.2,0,0.3,0.1c0,0,0.1,0.1,0.1,0.1c0,0,0-0.1,0.1-0.1
			c0.1-0.1,0.2-0.1,0.3-0.1c0.1,0,0.2,0,0.3,0.1c0.1,0.1,0.1,0.2,0.1,0.4v0.6h-0.1v-0.6c0-0.1,0-0.2-0.1-0.3c0-0.1-0.1-0.1-0.2-0.1
			c-0.1,0-0.2,0-0.2,0.1c-0.1,0.1-0.1,0.1-0.1,0.2v0.6h-0.1v-0.6c0-0.1,0-0.2-0.1-0.2c0-0.1-0.1-0.1-0.2-0.1c-0.1,0-0.2,0-0.2,0.1
			c0,0.1-0.1,0.1-0.1,0.2v0.6H12L12,16.4L12,16.4z"/>
		<path fill="#485156" d="M14,17c0,0.3,0.2,0.4,0.4,0.4c0.2,0,0.3-0.1,0.4-0.2h0.1c0,0.1-0.1,0.2-0.2,0.3c-0.1,0.1-0.2,0.1-0.3,0.1
			c-0.4,0-0.5-0.3-0.5-0.5c0-0.3,0.2-0.5,0.5-0.5c0.1,0,0.3,0.1,0.4,0.1c0.1,0.1,0.2,0.3,0.2,0.4H14z M14.8,16.9
			c0-0.2-0.2-0.4-0.4-0.4c-0.2,0-0.4,0.2-0.4,0.4H14.8z"/>
		<path fill="#485156" d="M15.2,16.4h0.1v0.2c0.1-0.2,0.2-0.2,0.3-0.2v0.1h0c-0.2,0-0.3,0.1-0.3,0.4v0.6h-0.1L15.2,16.4L15.2,16.4z"
			/>
		<path fill="#485156" d="M15.9,16h0.1v0.2h-0.1V16z M15.9,16.4h0.1v1h-0.1V16.4z"/>
		<path fill="#485156" d="M17.5,17.4h-0.1v-0.2c-0.1,0.2-0.2,0.2-0.4,0.2c-0.3,0-0.5-0.3-0.5-0.5c0-0.3,0.2-0.5,0.5-0.5
			c0.2,0,0.4,0.1,0.4,0.2v-0.2h0.1V17.4z M16.5,16.9c0,0.2,0.1,0.4,0.4,0.4c0.2,0,0.3-0.1,0.4-0.3c0,0,0-0.1,0-0.2
			c0-0.1,0-0.1,0-0.2c-0.1-0.1-0.2-0.2-0.4-0.2C16.7,16.5,16.5,16.7,16.5,16.9L16.5,16.9L16.5,16.9z"/>
		<path fill="#485156" d="M19.6,16H20c0.2,0,0.3,0,0.4,0.1c0.1,0.1,0.2,0.2,0.2,0.4c0,0.1,0,0.2-0.1,0.3c-0.1,0.1-0.2,0.1-0.3,0.2
			l0.4,0.5h-0.2L20,16.8h0c0.1,0,0.2,0,0.3-0.1c0.1-0.1,0.1-0.2,0.1-0.3c0-0.1-0.1-0.2-0.1-0.3c-0.1,0-0.2-0.1-0.3-0.1h-0.2v1.3
			h-0.2L19.6,16L19.6,16z"/>
		<path fill="#485156" d="M20.8,16.9c0-0.3,0.2-0.5,0.5-0.5c0.3,0,0.5,0.3,0.5,0.5c0,0.3-0.2,0.5-0.5,0.5
			C21,17.5,20.8,17.2,20.8,16.9L20.8,16.9z M20.9,16.9c0,0.2,0.2,0.4,0.4,0.4c0.2,0,0.4-0.2,0.4-0.4c0-0.2-0.2-0.4-0.4-0.4
			C21.1,16.5,20.9,16.7,20.9,16.9L20.9,16.9z"/>
		<path fill="#485156" d="M22.2,16.4h0.1v0.2c0.1-0.1,0.2-0.2,0.3-0.2c0.1,0,0.2,0,0.3,0.1c0,0,0.1,0.1,0.1,0.1c0,0,0-0.1,0.1-0.1
			c0.1-0.1,0.2-0.1,0.3-0.1c0.1,0,0.2,0,0.3,0.1c0.1,0.1,0.1,0.2,0.1,0.4v0.6h-0.1v-0.6c0-0.1,0-0.2-0.1-0.3c0-0.1-0.1-0.1-0.2-0.1
			c-0.1,0-0.2,0-0.2,0.1c-0.1,0.1-0.1,0.1-0.1,0.2v0.6h-0.1v-0.6c0-0.1,0-0.2-0.1-0.2c0-0.1-0.1-0.1-0.2-0.1c-0.1,0-0.2,0-0.2,0.1
			c0,0.1-0.1,0.1-0.1,0.2v0.6h-0.1L22.2,16.4L22.2,16.4z"/>
		<path fill="#485156" d="M25.2,17.4H25v-0.2c-0.1,0.2-0.2,0.2-0.4,0.2c-0.3,0-0.5-0.3-0.5-0.5c0-0.3,0.2-0.5,0.5-0.5
			c0.2,0,0.4,0.1,0.4,0.2v-0.2h0.1V17.4z M24.2,16.9c0,0.2,0.1,0.4,0.4,0.4c0.2,0,0.3-0.1,0.4-0.3c0,0,0-0.1,0-0.2
			c0-0.1,0-0.1,0-0.2c-0.1-0.1-0.2-0.2-0.4-0.2C24.4,16.5,24.2,16.7,24.2,16.9L24.2,16.9L24.2,16.9z"/>
	</g>
	<rect x="18.4" y="16.7" fill="#485156" width="0.4" height="0.4"/>
</g>
</svg>
