<?xml version="1.0" encoding="utf-8"?>
<!-- Generator: Adobe Illustrator 17.1.0, SVG Export Plug-In . SVG Version: 6.00 Build 0)  -->
<!DOCTYPE svg PUBLIC "-//W3C//DTD SVG 1.1//EN" "http://www.w3.org/Graphics/SVG/1.1/DTD/svg11.dtd">
<svg version="1.1" id="Layer_1" xmlns="http://www.w3.org/2000/svg" xmlns:xlink="http://www.w3.org/1999/xlink" x="0px" y="0px"
	 viewBox="379 357 400 140" enable-background="new 379 357 400 140" xml:space="preserve">
<g>
	<g>
		<path fill="#485156" d="M394.7,420.7c1.1,11.3,9.4,13.7,13.6,13.7c7.1,0,13.6-5.4,13.6-13c0-9.6-8.2-11.7-16.1-14.3
			c-5.5-1.7-17.4-5.1-17.4-18c-0.2-12,9.8-18.8,20.2-18.8c8.5,0,18.2,4.7,19.3,17.6h-7.5c-0.8-4.4-3-11.1-12-11.1
			c-6.8,0-12.4,4.6-12.4,11.7c-0.1,8.3,6.6,10.3,16.9,13.8c6.4,2.5,16.6,6.1,16.6,18.6c0,11.1-8.4,20-21.1,20
			c-11.4,0-20.9-7.2-21.3-20.1L394.7,420.7L394.7,420.7z"/>
		<path fill="#485156" d="M491.5,439.6h-6.8v-10.2c-3.9,7.4-11.4,11.6-20.2,11.6c-16.1,0-25.7-12.5-25.7-26.1
			c0-14.5,10.6-26.1,25.7-26.1c10.6,0,17.8,6.2,20.2,11.8v-10.4h6.8V439.6z M445.5,415c0.1,8.9,6.3,19.7,19.9,19.7
			c8.7,0,15.2-5.1,17.8-12c1.1-2.4,1.7-5.1,1.7-7.8c0.1-2.8-0.5-5.5-1.6-7.9c-2.8-6.8-9.4-11.9-18.1-11.9
			C453.8,395,445.5,403.9,445.5,415L445.5,415L445.5,415z"/>
		<path fill="#485156" d="M506.9,371.6h6.8v68h-6.8V371.6z"/>
		<path fill="#485156" d="M549.6,439.6h-7.1L523,390.2h7.2l15.9,41.1l15.8-41.1h7.2L549.6,439.6z"/>
		<path fill="#485156" d="M626.3,439.6h-6.8v-10.2c-3.9,7.4-11.4,11.6-20.2,11.6c-16.1,0-25.7-12.5-25.7-26.1
			c0-14.5,10.6-26.1,25.7-26.1c10.6,0,17.8,6.2,20.2,11.8v-10.4h6.8V439.6z M580.3,415c0.1,8.9,6.3,19.7,19.9,19.7
			c8.7,0,15.2-5.1,17.8-12c1.1-2.4,1.7-5.1,1.7-7.8c0.1-2.8-0.5-5.5-1.6-7.9c-2.8-6.8-9.4-11.9-18.1-11.9
			C588.6,395,580.3,403.9,580.3,415L580.3,415z"/>
		<path fill="#485156" d="M645.6,395.6h-9.7v-5.4h9.7v-18.6h6.7v18.6h10.8v5.4h-10.8v44h-6.7V395.6z"/>
		<path fill="#485156" d="M667.5,414.8c0-13.8,10.3-26,26.2-26c16,0,26.3,12.2,26.3,26.1c0,13.9-10.3,26-26.3,26
			C677.8,440.9,667.5,428.8,667.5,414.8L667.5,414.8z M674.2,415c0,11.2,8.6,19.7,19.5,19.7c11,0,19.5-8.5,19.5-19.8
			c0-11.3-8.5-19.8-19.5-19.8C682.8,395.1,674.2,403.6,674.2,415L674.2,415z"/>
		<path fill="#485156" d="M732.4,390.2h6.4v8.1c3.6-7.4,10-9.3,15.8-9.5v6.7H754c-9.6,0-14.9,6-14.9,17.2v26.9h-6.7L732.4,390.2
			L732.4,390.2z"/>
		<path fill="#485156" d="M764.1,371.6h6.8v9.5h-6.8V371.6z M764.1,390.2h6.8v49.5h-6.8V390.2z"/>
	</g>
	<g>
		<g>
			<path fill="#485156" d="M469.1,465.5c2.5,0,3.7,0.3,4.8,1.1c1.2,0.9,1.9,2.6,1.9,4.2c0,1.7-0.7,3.4-1.8,4.2
				c-1.2,0.9-2.4,1.2-4.7,1.2h-2.9v7h-2v-17.8H469.1z M466.4,474.5h2.8c1.5,0,2.4-0.2,3.3-0.7c0.8-0.5,1.3-1.6,1.3-2.9
				c0-1.3-0.6-2.4-1.3-2.9c-0.9-0.6-1.8-0.7-3.3-0.7h-2.8L466.4,474.5L466.4,474.5z"/>
			<path fill="#485156" d="M479,470.3h1.7v2.1c0.9-1.9,2.6-2.4,4.1-2.5v1.8h-0.2c-2.5,0-3.9,1.6-3.9,4.5v7H479L479,470.3L479,470.3z
				"/>
			<path fill="#485156" d="M486.6,476.8c0-3.6,2.7-6.8,6.8-6.8c4.2,0,6.9,3.2,6.9,6.8c0,3.6-2.7,6.8-6.9,6.8
				C489.3,483.6,486.6,480.4,486.6,476.8L486.6,476.8z M488.4,476.8c0,2.9,2.2,5.1,5.1,5.1c2.9,0,5.1-2.2,5.1-5.2
				c0-3-2.2-5.2-5.1-5.2C490.6,471.6,488.4,473.8,488.4,476.8L488.4,476.8z"/>
			<path fill="#485156" d="M504.4,471.7h-1.9v-1.4h1.9v-1.1c0-4,3.1-4.1,4.5-4.1v1.4c-0.9,0-2.8,0-2.8,2.9v0.9h2.8v1.4h-2.8v11.5
				h-1.8V471.7z"/>
			<path fill="#485156" d="M523.9,483.2h-1.7v-2.3c-0.7,1.7-2.5,2.7-4.8,2.7c-4-0.1-5.5-2.8-5.5-6v-7.3h1.8v7c0,2.8,1.2,4.7,4.2,4.6
				c2.7,0,4.2-1.6,4.2-4.3v-7.3h1.8L523.9,483.2L523.9,483.2z"/>
			<path fill="#485156" d="M528.5,470.3h1.7v2c0.8-1.6,2.6-2.4,4.1-2.4c1.3,0,2.6,0.4,3.5,1.5c0.3,0.3,0.8,1.2,0.8,1.3
				c0.2-0.4,0.5-0.9,0.9-1.4c0.8-0.9,2.1-1.4,3.6-1.4c1.3,0,2.6,0.4,3.5,1.3c1.1,1.1,1.5,2.5,1.5,4.8v7.2h-1.8v-7.1
				c0-1.4-0.2-2.6-1-3.4c-0.5-0.7-1.3-1.1-2.6-1.1c-1.1,0-2.2,0.5-2.8,1.3c-0.7,0.9-0.8,1.6-0.8,3.1v7.2h-1.8v-7.2
				c0-1.4-0.2-2.3-0.7-3.1c-0.6-0.8-1.5-1.3-2.8-1.4c-1.2,0-2.2,0.6-2.7,1.3c-0.5,0.7-0.9,1.7-0.9,3.1v7.2h-1.8V470.3z"/>
			<path fill="#485156" d="M553.6,477.3c0.1,3.2,2.9,4.8,5,4.8c2,0,3.6-1,4.4-2.7h1.9c-0.6,1.4-1.5,2.4-2.6,3.1
				c-1.1,0.7-2.4,1.1-3.7,1.1c-4.5,0-6.8-3.6-6.8-6.8c0-3.8,2.9-6.8,6.8-6.8c1.8,0,3.5,0.6,4.7,1.8c1.5,1.4,2.2,3.4,2,5.5H553.6z
				 M563.6,475.9c-0.1-2.3-2.3-4.5-5-4.4c-2.8,0-4.9,2-5,4.4H563.6z"/>
			<path fill="#485156" d="M569.1,470.3h1.7v2.1c0.9-1.9,2.6-2.4,4.1-2.5v1.8h-0.2c-2.5,0-3.9,1.6-3.9,4.5v7h-1.8V470.3z"/>
			<path fill="#485156" d="M578,465.5h1.8v2.5H578V465.5z M578,470.3h1.8v12.9H578V470.3z"/>
			<path fill="#485156" d="M597.4,483.2h-1.8v-2.7c-1,1.9-3,3-5.3,3c-4.2,0-6.7-3.3-6.7-6.8c0-3.8,2.8-6.8,6.7-6.8
				c2.8,0,4.7,1.6,5.3,3.1v-2.7h1.8V483.2z M585.4,476.8c0,2.3,1.6,5.1,5.2,5.1c2.3,0,4-1.3,4.7-3.1c0.3-0.6,0.4-1.3,0.4-2
				c0-0.7-0.1-1.4-0.4-2.1c-0.7-1.8-2.4-3.1-4.7-3.1C587.6,471.6,585.4,473.9,585.4,476.8L585.4,476.8z"/>
			<path fill="#485156" d="M624.4,465.5h4.6c2.8,0,4.1,0.3,5,0.9c1.4,0.9,2.4,2.8,2.4,4.8c0,1.2-0.3,2.5-1.1,3.5
				c-1.1,1.4-2.3,1.8-4,1.9l4.4,6.7h-2.2l-5-7.8h0.6c1.2,0,3,0,3.9-0.9c0.9-0.9,1.3-2,1.3-3.3c0-1.3-0.7-2.7-1.8-3.4
				c-0.9-0.6-2-0.6-3.6-0.6h-2.8v16h-2V465.5L624.4,465.5z"/>
			<path fill="#485156" d="M638.9,476.8c0-3.6,2.7-6.8,6.8-6.8c4.2,0,6.9,3.2,6.9,6.8c0,3.6-2.7,6.8-6.9,6.8
				C641.6,483.6,638.9,480.4,638.9,476.8L638.9,476.8z M640.6,476.8c0,2.9,2.2,5.1,5.1,5.1c2.9,0,5.1-2.2,5.1-5.2
				c0-3-2.2-5.2-5.1-5.2C642.8,471.6,640.6,473.8,640.6,476.8L640.6,476.8z"/>
			<path fill="#485156" d="M656.4,470.3h1.7v2c0.8-1.6,2.6-2.4,4.1-2.4c1.3,0,2.6,0.4,3.5,1.5c0.3,0.3,0.8,1.2,0.8,1.3
				c0.2-0.4,0.5-0.9,0.9-1.4c0.8-0.9,2.1-1.4,3.6-1.4c1.3,0,2.6,0.4,3.5,1.3c1.1,1.1,1.5,2.5,1.5,4.8v7.2h-1.8v-7.1
				c0-1.4-0.2-2.6-1-3.4c-0.5-0.7-1.3-1.1-2.6-1.1c-1.1,0-2.2,0.5-2.8,1.3c-0.7,0.9-0.8,1.6-0.8,3.1v7.2h-1.8v-7.2
				c0-1.4-0.2-2.3-0.7-3.1c-0.6-0.8-1.5-1.3-2.8-1.4c-1.2,0-2.2,0.6-2.7,1.3c-0.5,0.7-0.9,1.7-0.9,3.1v7.2h-1.8L656.4,470.3
				L656.4,470.3z"/>
			<path fill="#485156" d="M693.5,483.2h-1.8v-2.7c-1,1.9-3,3-5.3,3c-4.2,0-6.7-3.3-6.7-6.8c0-3.8,2.8-6.8,6.7-6.8
				c2.8,0,4.7,1.6,5.3,3.1v-2.7h1.8V483.2z M681.5,476.8c0,2.3,1.6,5.1,5.2,5.1c2.3,0,4-1.3,4.7-3.1c0.3-0.6,0.4-1.3,0.4-2
				c0-0.7-0.1-1.4-0.4-2.1c-0.7-1.8-2.5-3.1-4.7-3.1C683.7,471.6,681.5,473.9,681.5,476.8L681.5,476.8L681.5,476.8z"/>
		</g>
		<rect x="608.7" y="473.8" fill="#485156" width="4.9" height="4.9"/>
	</g>
</g>
</svg>
