<?xml version="1.0" encoding="utf-8"?>
<!-- Generator: Adobe Illustrator 16.0.0, SVG Export Plug-In . SVG Version: 6.00 Build 0)  -->
<!DOCTYPE svg PUBLIC "-//W3C//DTD SVG 1.1//EN" "http://www.w3.org/Graphics/SVG/1.1/DTD/svg11.dtd">
<svg version="1.1" id="Layer_1" xmlns="http://www.w3.org/2000/svg" xmlns:xlink="http://www.w3.org/1999/xlink" x="0px" y="0px"
	 width="1190.55px" height="841.89px" viewBox="0 0 1190.55 841.89" enable-background="new 0 0 1190.55 841.89"
	 xml:space="preserve">
<g>
	<g>
		<path fill="#485156" d="M392.904,415.526c1.104,11.312,9.382,13.701,13.61,13.701c7.08,0,13.607-5.423,13.607-12.967
			c0-9.562-8.183-11.676-16.09-14.251c-5.517-1.655-17.382-5.148-17.382-18.022c-0.18-12.045,9.841-18.76,20.231-18.76
			c8.462,0,18.21,4.688,19.313,17.562h-7.544c-0.825-4.415-3.031-11.125-12.042-11.125c-6.807,0-12.414,4.599-12.414,11.681
			c-0.093,8.271,6.621,10.299,16.921,13.789c6.432,2.484,16.552,6.072,16.552,18.579c0,11.125-8.369,19.952-21.059,19.952
			c-11.404,0-20.874-7.171-21.335-20.139H392.904z"/>
		<path fill="#485156" d="M489.689,434.473h-6.807v-10.209c-3.862,7.445-11.403,11.585-20.229,11.585
			c-16.09,0-25.656-12.505-25.656-26.114c0-14.53,10.574-26.116,25.656-26.116c10.573,0,17.839,6.16,20.229,11.771v-10.393h6.807
			V434.473z M443.709,409.829c0.09,8.917,6.255,19.674,19.862,19.674c8.738,0,15.173-5.056,17.842-12.044
			c1.1-2.391,1.652-5.15,1.652-7.819c0.093-2.754-0.458-5.516-1.559-7.904c-2.762-6.809-9.382-11.864-18.117-11.864
			c-11.404,0-19.68,8.828-19.68,19.863V409.829z"/>
		<path fill="#485156" d="M505.03,366.424h6.804v68.049h-6.804V366.424z"/>
		<path fill="#485156" d="M547.763,434.473h-7.08l-19.494-49.477h7.172l15.911,41.105l15.814-41.105h7.17L547.763,434.473z"/>
		<path fill="#485156" d="M624.481,434.473h-6.804v-10.209c-3.861,7.445-11.403,11.585-20.231,11.585
			c-16.094,0-25.655-12.505-25.655-26.114c0-14.53,10.575-26.116,25.655-26.116c10.579,0,17.842,6.16,20.231,11.771v-10.393h6.804
			V434.473z M578.504,409.829c0.093,8.917,6.253,19.674,19.863,19.674c8.734,0,15.173-5.056,17.841-12.044
			c1.101-2.391,1.653-5.15,1.653-7.819c0.092-2.754-0.463-5.516-1.562-7.904c-2.759-6.809-9.376-11.864-18.114-11.864
			c-11.404,0-19.681,8.828-19.681,19.863V409.829z"/>
		<path fill="#485156" d="M643.76,390.423h-9.748v-5.427h9.748v-18.572h6.714v18.572h10.849v5.427h-10.849v44.049h-6.714V390.423z"
			/>
		<path fill="#485156" d="M665.691,409.64c0-13.789,10.3-26.021,26.211-26.021c15.997,0,26.297,12.232,26.297,26.116
			s-10.3,26.021-26.297,26.021c-15.911,0-26.211-12.138-26.211-26.021V409.64z M672.404,409.829
			c0,11.214,8.553,19.674,19.498,19.674c11.031,0,19.494-8.46,19.494-19.769c0-11.31-8.463-19.769-19.494-19.769
			c-10.945,0-19.498,8.459-19.498,19.769V409.829z"/>
		<path fill="#485156" d="M730.549,384.996h6.435v8.093c3.589-7.356,10.021-9.287,15.816-9.471v6.715h-0.644
			c-9.566,0-14.895,5.975-14.895,17.194v26.945h-6.713V384.996z"/>
		<path fill="#485156" d="M762.246,366.424h6.804v9.471h-6.804V366.424z M762.246,384.996h6.804v49.477h-6.804V384.996z"/>
	</g>
	<g>
		<g>
			<path fill="#485156" d="M467.302,460.295c2.498,0,3.676,0.287,4.782,1.128c1.175,0.911,1.896,2.569,1.896,4.223
				c0,1.686-0.744,3.396-1.826,4.234c-1.176,0.912-2.378,1.199-4.684,1.199h-2.861v6.99h-1.994v-17.774H467.302z M464.609,469.322
				h2.837c1.491,0,2.405-0.168,3.29-0.738c0.771-0.509,1.322-1.637,1.322-2.884c0-1.273-0.551-2.405-1.344-2.909
				c-0.89-0.577-1.802-0.743-3.313-0.743h-2.792V469.322z"/>
			<path fill="#485156" d="M477.137,465.148h1.683v2.111c0.935-1.926,2.617-2.427,4.131-2.473v1.752h-0.168
				c-2.498,0-3.889,1.561-3.889,4.493v7.037h-1.757V465.148z"/>
			<path fill="#485156" d="M484.774,471.583c0-3.602,2.692-6.796,6.849-6.796c4.177,0,6.867,3.194,6.867,6.819
				c0,3.629-2.69,6.795-6.867,6.795c-4.157,0-6.849-3.166-6.849-6.795V471.583z M486.526,471.631c0,2.93,2.237,5.144,5.098,5.144
				c2.878,0,5.092-2.214,5.092-5.168c0-2.953-2.213-5.163-5.092-5.163c-2.861,0-5.098,2.21-5.098,5.163V471.631z"/>
			<path fill="#485156" d="M502.538,466.563h-1.895v-1.415h1.895v-1.06c0-3.989,3.148-4.107,4.543-4.107v1.417
				c-0.891,0.047-2.786,0.047-2.786,2.856v0.894h2.786v1.415h-2.786v11.506h-1.757V466.563z"/>
			<path fill="#485156" d="M522.047,478.069h-1.682v-2.307c-0.723,1.683-2.475,2.693-4.783,2.669
				c-4.036-0.074-5.455-2.812-5.455-5.958v-7.325h1.757v6.986c0,2.788,1.247,4.659,4.156,4.64c2.687-0.024,4.225-1.635,4.225-4.325
				v-7.301h1.781V478.069z"/>
			<path fill="#485156" d="M526.698,465.148h1.683v2.039c0.818-1.634,2.617-2.4,4.083-2.4c1.347,0,2.621,0.433,3.532,1.461
				c0.336,0.339,0.768,1.203,0.84,1.348c0.192-0.36,0.456-0.864,0.936-1.367c0.843-0.895,2.117-1.441,3.556-1.441
				c1.323,0,2.594,0.379,3.485,1.297c1.127,1.127,1.466,2.521,1.466,4.804v7.182H544.5v-7.109c0-1.371-0.215-2.598-0.962-3.437
				c-0.528-0.673-1.347-1.08-2.57-1.08c-1.127,0-2.23,0.455-2.833,1.344c-0.651,0.911-0.771,1.634-0.771,3.101v7.182h-1.776v-7.182
				c0.045-1.445-0.17-2.282-0.671-3.073c-0.603-0.844-1.515-1.347-2.837-1.371c-1.202-0.048-2.21,0.552-2.74,1.32
				c-0.549,0.742-0.864,1.727-0.864,3.1v7.206h-1.778V465.148z"/>
			<path fill="#485156" d="M551.736,472.114c0.099,3.241,2.861,4.8,5.047,4.779c1.994,0,3.604-0.986,4.444-2.665h1.851
				c-0.603,1.391-1.515,2.446-2.618,3.146c-1.08,0.695-2.354,1.058-3.677,1.058c-4.492,0-6.822-3.58-6.822-6.801
				c0-3.796,2.929-6.844,6.798-6.844c1.826,0,3.508,0.646,4.732,1.824c1.491,1.439,2.21,3.437,2.018,5.503H551.736z
				 M561.757,470.695c-0.12-2.258-2.306-4.467-4.974-4.396c-2.786,0-4.852,2.038-5.02,4.396H561.757z"/>
			<path fill="#485156" d="M567.238,465.148h1.682v2.111c0.936-1.926,2.618-2.427,4.132-2.473v1.752h-0.167
				c-2.499,0-3.89,1.561-3.89,4.493v7.037h-1.757V465.148z"/>
			<path fill="#485156" d="M576.156,460.295h1.781v2.474h-1.781V460.295z M576.156,465.148h1.781v12.921h-1.781V465.148z"/>
			<path fill="#485156" d="M595.59,478.069h-1.778v-2.666c-1.008,1.949-2.978,3.028-5.284,3.028c-4.207,0-6.704-3.268-6.704-6.825
				c0-3.792,2.762-6.819,6.704-6.819c2.762,0,4.657,1.608,5.284,3.072v-2.711h1.778V478.069z M583.578,471.631
				c0.024,2.333,1.631,5.144,5.188,5.144c2.281,0,3.964-1.323,4.663-3.149c0.284-0.627,0.429-1.344,0.429-2.042
				c0.027-0.72-0.117-1.439-0.405-2.063c-0.723-1.78-2.45-3.104-4.735-3.104c-2.978,0-5.14,2.307-5.14,5.19V471.631z"/>
			<path fill="#485156" d="M622.526,460.295h4.642c2.787,0,4.082,0.335,4.993,0.913c1.439,0.862,2.429,2.763,2.429,4.78
				c0.024,1.199-0.312,2.47-1.059,3.48c-1.055,1.443-2.33,1.779-3.964,1.946l4.423,6.654h-2.164l-5.02-7.758h0.575
				c1.25,0,2.977-0.023,3.939-0.911c0.938-0.915,1.347-1.997,1.347-3.269c0-1.323-0.65-2.717-1.754-3.438
				c-0.888-0.574-1.994-0.646-3.604-0.646h-2.789v16.021h-1.994V460.295z"/>
			<path fill="#485156" d="M637.025,471.583c0-3.602,2.689-6.796,6.846-6.796c4.18,0,6.869,3.194,6.869,6.819
				c0,3.629-2.689,6.795-6.869,6.795c-4.156,0-6.846-3.166-6.846-6.795V471.583z M638.779,471.631c0,2.93,2.23,5.144,5.092,5.144
				c2.878,0,5.092-2.214,5.092-5.168c0-2.953-2.214-5.163-5.092-5.163c-2.861,0-5.092,2.21-5.092,5.163V471.631z"/>
			<path fill="#485156" d="M654.591,465.148h1.682v2.039c0.812-1.634,2.616-2.4,4.085-2.4c1.34,0,2.617,0.433,3.528,1.461
				c0.339,0.339,0.771,1.203,0.843,1.348c0.188-0.36,0.453-0.864,0.936-1.367c0.843-0.895,2.115-1.441,3.554-1.441
				c1.325,0,2.597,0.379,3.485,1.297c1.126,1.127,1.465,2.521,1.465,4.804v7.182h-1.777v-7.109c0-1.371-0.217-2.598-0.96-3.437
				c-0.53-0.673-1.347-1.08-2.572-1.08c-1.128,0-2.231,0.455-2.831,1.344c-0.654,0.911-0.771,1.634-0.771,3.101v7.182h-1.778v-7.182
				c0.045-1.445-0.168-2.282-0.672-3.073c-0.6-0.844-1.515-1.347-2.837-1.371c-1.202-0.048-2.206,0.552-2.74,1.32
				c-0.549,0.742-0.86,1.727-0.86,3.1v7.206h-1.778V465.148z"/>
			<path fill="#485156" d="M691.707,478.069h-1.777v-2.666c-1.009,1.949-2.979,3.028-5.284,3.028c-4.207,0-6.702-3.268-6.702-6.825
				c0-3.792,2.762-6.819,6.702-6.819c2.765,0,4.659,1.608,5.284,3.072v-2.711h1.777V478.069z M679.697,471.631
				c0.024,2.333,1.632,5.144,5.185,5.144c2.285,0,3.968-1.323,4.666-3.149c0.285-0.627,0.43-1.344,0.43-2.042
				c0.026-0.72-0.117-1.439-0.405-2.063c-0.723-1.78-2.453-3.104-4.734-3.104c-2.979,0-5.141,2.307-5.141,5.19V471.631z"/>
		</g>
		<rect x="606.853" y="468.645" fill="#485156" width="4.87" height="4.87"/>
	</g>
</g>
</svg>
