<?xml version="1.0" encoding="utf-8"?>
<!-- Generator: Adobe Illustrator 17.1.0, SVG Export Plug-In . SVG Version: 6.00 Build 0)  -->
<!DOCTYPE svg PUBLIC "-//W3C//DTD SVG 1.1//EN" "http://www.w3.org/Graphics/SVG/1.1/DTD/svg11.dtd">
<svg version="1.1" id="Layer_1" xmlns="http://www.w3.org/2000/svg" xmlns:xlink="http://www.w3.org/1999/xlink" x="0px" y="0px"
	 viewBox="380.9 257.6 80 80" enable-background="new 380.9 257.6 80 80" xml:space="preserve">
<path fill="none" stroke="#1D1D1B" stroke-width="0.25" stroke-linecap="round" stroke-linejoin="round" stroke-miterlimit="10" d="
	M386.2,262.9c6.2,0,14.9,4.5,22.6,12.2c7.7,7.7,12.2,16.4,12.2,22.6"/>
<path fill="none" stroke="#1D1D1B" stroke-width="0.25" stroke-linecap="round" stroke-linejoin="round" stroke-miterlimit="10" d="
	M420.9,297.6c-6.2,0-14.9-4.5-22.6-12.2c-7.7-7.7-12.2-16.4-12.2-22.6"/>
<path fill="none" stroke="#1D1D1B" stroke-width="0.25" stroke-linecap="round" stroke-linejoin="round" stroke-miterlimit="10" d="
	M420.9,297.6c-4.9-1.2-12.8-6.6-20.5-14.2c-7.7-7.7-13-15.6-14.2-20.5"/>
<path fill="none" stroke="#1D1D1B" stroke-width="0.25" stroke-linecap="round" stroke-linejoin="round" stroke-miterlimit="10" d="
	M386.2,262.9c4.9,1.2,12.8,6.6,20.5,14.2c7.7,7.7,13,15.6,14.2,20.5"/>
<path fill="none" stroke="#1D1D1B" stroke-width="0.25" stroke-linecap="round" stroke-linejoin="round" stroke-miterlimit="10" d="
	M386.2,262.9c3.8,2.4,10.9,8.5,18.5,16.2c7.7,7.7,13.8,14.8,16.2,18.5"/>
<path fill="none" stroke="#1D1D1B" stroke-width="0.25" stroke-linecap="round" stroke-linejoin="round" stroke-miterlimit="10" d="
	M420.9,297.6c-3.8-2.4-10.9-8.5-18.5-16.2c-7.7-7.7-13.8-14.8-16.2-18.5"/>
<path fill="none" stroke="#1D1D1B" stroke-width="0.25" stroke-linecap="round" stroke-linejoin="round" stroke-miterlimit="10" d="
	M386.2,262.9c3.1-3.1,9.8-5.3,17.5-5.3s14.4,2.1,17.5,5.3"/>
<path fill="none" stroke="#1D1D1B" stroke-width="0.25" stroke-linecap="round" stroke-linejoin="round" stroke-miterlimit="10" d="
	M421.2,262.9c-3.1,3.1-9.8,5.3-17.5,5.3c-7.7,0-14.4-2.1-17.5-5.3"/>
<path fill="none" stroke="#1D1D1B" stroke-width="0.25" stroke-linecap="round" stroke-linejoin="round" stroke-miterlimit="10" d="
	M421.2,262.9c-3.1,1.9-9.8,3.2-17.5,3.2c-7.7,0-14.4-1.3-17.5-3.2"/>
<path fill="none" stroke="#1D1D1B" stroke-width="0.25" stroke-linecap="round" stroke-linejoin="round" stroke-miterlimit="10" d="
	M386.2,262.9c3.1-1.9,9.8-3.2,17.5-3.2s14.4,1.3,17.5,3.2"/>
<path fill="none" stroke="#1D1D1B" stroke-width="0.25" stroke-linecap="round" stroke-linejoin="round" stroke-miterlimit="10" d="
	M386.2,262.9c3.1-0.7,9.8-1.2,17.5-1.2c7.7,0,14.4,0.5,17.5,1.2"/>
<path fill="none" stroke="#1D1D1B" stroke-width="0.25" stroke-linecap="round" stroke-linejoin="round" stroke-miterlimit="10" d="
	M421.2,262.9c-3.1,0.7-9.8,1.2-17.5,1.2c-7.7,0-14.4-0.5-17.5-1.2"/>
<path fill="none" stroke="#1D1D1B" stroke-width="0.25" stroke-linecap="round" stroke-linejoin="round" stroke-miterlimit="10" d="
	M386.2,262.9c3.1,3.1,5.3,9.8,5.3,17.5s-2.2,14.4-5.3,17.5"/>
<path fill="none" stroke="#1D1D1B" stroke-width="0.25" stroke-linecap="round" stroke-linejoin="round" stroke-miterlimit="10" d="
	M386.2,297.9c-3.1-3.1-5.3-9.8-5.3-17.5c0-7.7,2.2-14.4,5.3-17.5"/>
<path fill="none" stroke="#1D1D1B" stroke-width="0.25" stroke-linecap="round" stroke-linejoin="round" stroke-miterlimit="10" d="
	M386.2,297.9c-1.9-3.1-3.2-9.8-3.2-17.5c0-7.7,1.3-14.4,3.2-17.5"/>
<path fill="none" stroke="#1D1D1B" stroke-width="0.25" stroke-linecap="round" stroke-linejoin="round" stroke-miterlimit="10" d="
	M386.2,262.9c1.9,3.1,3.2,9.8,3.2,17.5s-1.3,14.4-3.2,17.5"/>
<path fill="none" stroke="#1D1D1B" stroke-width="0.25" stroke-linecap="round" stroke-linejoin="round" stroke-miterlimit="10" d="
	M386.2,262.9c0.7,3.1,1.2,9.8,1.2,17.5c0,7.7-0.5,14.4-1.2,17.5"/>
<path fill="none" stroke="#1D1D1B" stroke-width="0.25" stroke-linecap="round" stroke-linejoin="round" stroke-miterlimit="10" d="
	M386.2,297.9c-0.7-3.1-1.2-9.8-1.2-17.5c0-7.7,0.5-14.4,1.2-17.5"/>
<path fill="none" stroke="#1D1D1B" stroke-width="0.25" stroke-linecap="round" stroke-linejoin="round" stroke-miterlimit="10" d="
	M455.7,262.9c3.1,3.1,5.3,9.8,5.3,17.5s-2.2,14.4-5.3,17.5"/>
<path fill="none" stroke="#1D1D1B" stroke-width="0.25" stroke-linecap="round" stroke-linejoin="round" stroke-miterlimit="10" d="
	M455.7,297.9c-3.1-3.1-5.3-9.8-5.3-17.5c0-7.7,2.2-14.4,5.3-17.5"/>
<path fill="none" stroke="#1D1D1B" stroke-width="0.25" stroke-linecap="round" stroke-linejoin="round" stroke-miterlimit="10" d="
	M455.7,297.9c-1.9-3.1-3.2-9.8-3.2-17.5c0-7.7,1.3-14.4,3.2-17.5"/>
<path fill="none" stroke="#1D1D1B" stroke-width="0.25" stroke-linecap="round" stroke-linejoin="round" stroke-miterlimit="10" d="
	M455.7,262.9c1.9,3.1,3.2,9.8,3.2,17.5c0,7.7-1.3,14.4-3.2,17.5"/>
<path fill="none" stroke="#1D1D1B" stroke-width="0.25" stroke-linecap="round" stroke-linejoin="round" stroke-miterlimit="10" d="
	M455.7,262.9c0.7,3.1,1.2,9.8,1.2,17.5c0,7.7-0.5,14.4-1.2,17.5"/>
<path fill="none" stroke="#1D1D1B" stroke-width="0.25" stroke-linecap="round" stroke-linejoin="round" stroke-miterlimit="10" d="
	M455.7,297.9c-0.7-3.1-1.2-9.8-1.2-17.5c0-7.7,0.5-14.4,1.2-17.5"/>
<path fill="none" stroke="#1D1D1B" stroke-width="0.25" stroke-linecap="round" stroke-linejoin="round" stroke-miterlimit="10" d="
	M455.7,262.9c-3.1,3.1-9.8,5.3-17.5,5.3c-7.7,0-14.4-2.1-17.5-5.3"/>
<path fill="none" stroke="#1D1D1B" stroke-width="0.25" stroke-linecap="round" stroke-linejoin="round" stroke-miterlimit="10" d="
	M420.6,262.9c3.1-3.1,9.8-5.3,17.5-5.3c7.7,0,14.4,2.1,17.5,5.3"/>
<path fill="none" stroke="#1D1D1B" stroke-width="0.25" stroke-linecap="round" stroke-linejoin="round" stroke-miterlimit="10" d="
	M420.6,262.9c3.1-1.9,9.8-3.2,17.5-3.2c7.7,0,14.4,1.3,17.5,3.2"/>
<path fill="none" stroke="#1D1D1B" stroke-width="0.25" stroke-linecap="round" stroke-linejoin="round" stroke-miterlimit="10" d="
	M455.7,262.9c-3.1,1.9-9.8,3.2-17.5,3.2c-7.7,0-14.4-1.3-17.5-3.2"/>
<path fill="none" stroke="#1D1D1B" stroke-width="0.25" stroke-linecap="round" stroke-linejoin="round" stroke-miterlimit="10" d="
	M455.7,262.9c-3.1,0.7-9.8,1.2-17.5,1.2c-7.7,0-14.4-0.5-17.5-1.2"/>
<path fill="none" stroke="#1D1D1B" stroke-width="0.25" stroke-linecap="round" stroke-linejoin="round" stroke-miterlimit="10" d="
	M420.6,262.9c3.1-0.7,9.8-1.2,17.5-1.2c7.7,0,14.4,0.5,17.5,1.2"/>
<path fill="none" stroke="#1D1D1B" stroke-width="0.25" stroke-linecap="round" stroke-linejoin="round" stroke-miterlimit="10" d="
	M420.9,297.6c0-6.2,4.5-14.9,12.2-22.6c7.7-7.7,16.4-12.2,22.6-12.2"/>
<path fill="none" stroke="#1D1D1B" stroke-width="0.25" stroke-linecap="round" stroke-linejoin="round" stroke-miterlimit="10" d="
	M455.7,262.9c0,6.2-4.5,14.9-12.2,22.6c-7.7,7.7-16.4,12.2-22.6,12.2"/>
<path fill="none" stroke="#1D1D1B" stroke-width="0.25" stroke-linecap="round" stroke-linejoin="round" stroke-miterlimit="10" d="
	M455.7,262.9c-1.2,4.9-6.6,12.8-14.2,20.5c-7.7,7.7-15.6,13-20.5,14.2"/>
<path fill="none" stroke="#1D1D1B" stroke-width="0.25" stroke-linecap="round" stroke-linejoin="round" stroke-miterlimit="10" d="
	M420.9,297.6c1.2-4.9,6.6-12.8,14.2-20.5c7.7-7.7,15.6-13,20.5-14.2"/>
<path fill="none" stroke="#1D1D1B" stroke-width="0.25" stroke-linecap="round" stroke-linejoin="round" stroke-miterlimit="10" d="
	M420.9,297.6c2.4-3.8,8.5-10.9,16.2-18.5c7.7-7.7,14.8-13.8,18.5-16.2"/>
<path fill="none" stroke="#1D1D1B" stroke-width="0.25" stroke-linecap="round" stroke-linejoin="round" stroke-miterlimit="10" d="
	M455.7,262.9c-2.4,3.8-8.5,10.9-16.2,18.5c-7.7,7.7-14.8,13.8-18.5,16.2"/>
<path fill="none" stroke="#1D1D1B" stroke-width="0.25" stroke-linecap="round" stroke-linejoin="round" stroke-miterlimit="10" d="
	M386.2,332.4c0-6.2,4.5-14.9,12.2-22.6c7.7-7.7,16.4-12.2,22.6-12.2"/>
<path fill="none" stroke="#1D1D1B" stroke-width="0.25" stroke-linecap="round" stroke-linejoin="round" stroke-miterlimit="10" d="
	M420.9,297.6c0,6.2-4.5,14.9-12.2,22.6c-7.7,7.7-16.4,12.2-22.6,12.2"/>
<path fill="none" stroke="#1D1D1B" stroke-width="0.25" stroke-linecap="round" stroke-linejoin="round" stroke-miterlimit="10" d="
	M420.9,297.6c-1.2,4.9-6.6,12.8-14.2,20.5c-7.7,7.7-15.6,13-20.5,14.2"/>
<path fill="none" stroke="#1D1D1B" stroke-width="0.25" stroke-linecap="round" stroke-linejoin="round" stroke-miterlimit="10" d="
	M386.2,332.4c1.2-4.9,6.6-12.8,14.2-20.5c7.7-7.7,15.6-13,20.5-14.2"/>
<path fill="none" stroke="#1D1D1B" stroke-width="0.25" stroke-linecap="round" stroke-linejoin="round" stroke-miterlimit="10" d="
	M386.2,332.4c2.4-3.8,8.5-10.9,16.2-18.5c7.7-7.7,14.8-13.8,18.5-16.2"/>
<path fill="none" stroke="#1D1D1B" stroke-width="0.25" stroke-linecap="round" stroke-linejoin="round" stroke-miterlimit="10" d="
	M386.2,332.4c3.8-2.4,10.9-8.5,18.5-16.2c7.7-7.7,13.8-14.8,16.2-18.5"/>
<path fill="none" stroke="#1D1D1B" stroke-width="0.25" stroke-linecap="round" stroke-linejoin="round" stroke-miterlimit="10" d="
	M386.2,332.4c3.1-3.1,9.8-5.3,17.5-5.3c7.7,0,14.4,2.2,17.5,5.3"/>
<path fill="none" stroke="#1D1D1B" stroke-width="0.25" stroke-linecap="round" stroke-linejoin="round" stroke-miterlimit="10" d="
	M421.2,332.4c-3.1,3.1-9.8,5.3-17.5,5.3c-7.7,0-14.4-2.2-17.5-5.3"/>
<path fill="none" stroke="#1D1D1B" stroke-width="0.25" stroke-linecap="round" stroke-linejoin="round" stroke-miterlimit="10" d="
	M421.2,332.4c-3.1,1.9-9.8,3.2-17.5,3.2c-7.7,0-14.4-1.3-17.5-3.2"/>
<path fill="none" stroke="#1D1D1B" stroke-width="0.25" stroke-linecap="round" stroke-linejoin="round" stroke-miterlimit="10" d="
	M386.2,332.4c3.1-1.9,9.8-3.2,17.5-3.2c7.7,0,14.4,1.3,17.5,3.2"/>
<path fill="none" stroke="#1D1D1B" stroke-width="0.25" stroke-linecap="round" stroke-linejoin="round" stroke-miterlimit="10" d="
	M386.2,332.4c3.1-0.7,9.8-1.2,17.5-1.2c7.7,0,14.4,0.5,17.5,1.2"/>
<path fill="none" stroke="#1D1D1B" stroke-width="0.25" stroke-linecap="round" stroke-linejoin="round" stroke-miterlimit="10" d="
	M421.2,332.4c-3.1,0.7-9.8,1.2-17.5,1.2c-7.7,0-14.4-0.5-17.5-1.2"/>
<path fill="none" stroke="#1D1D1B" stroke-width="0.25" stroke-linecap="round" stroke-linejoin="round" stroke-miterlimit="10" d="
	M386.2,332.4c-3.1-3.1-5.3-9.8-5.3-17.5c0-7.7,2.2-14.4,5.3-17.5"/>
<path fill="none" stroke="#1D1D1B" stroke-width="0.25" stroke-linecap="round" stroke-linejoin="round" stroke-miterlimit="10" d="
	M386.2,297.3c3.1,3.1,5.3,9.8,5.3,17.5c0,7.7-2.1,14.4-5.3,17.5"/>
<path fill="none" stroke="#1D1D1B" stroke-width="0.25" stroke-linecap="round" stroke-linejoin="round" stroke-miterlimit="10" d="
	M386.2,297.3c1.9,3.1,3.2,9.8,3.2,17.5c0,7.7-1.3,14.4-3.2,17.5"/>
<path fill="none" stroke="#1D1D1B" stroke-width="0.25" stroke-linecap="round" stroke-linejoin="round" stroke-miterlimit="10" d="
	M386.2,332.4c-1.9-3.1-3.2-9.8-3.2-17.5c0-7.7,1.3-14.4,3.2-17.5"/>
<path fill="none" stroke="#1D1D1B" stroke-width="0.25" stroke-linecap="round" stroke-linejoin="round" stroke-miterlimit="10" d="
	M386.2,332.4c-0.7-3.1-1.2-9.8-1.2-17.5c0-7.7,0.5-14.4,1.2-17.5"/>
<path fill="none" stroke="#1D1D1B" stroke-width="0.25" stroke-linecap="round" stroke-linejoin="round" stroke-miterlimit="10" d="
	M386.2,297.3c0.7,3.1,1.2,9.8,1.2,17.5c0,7.7-0.5,14.4-1.2,17.5"/>
<path fill="none" stroke="#1D1D1B" stroke-width="0.25" stroke-linecap="round" stroke-linejoin="round" stroke-miterlimit="10" d="
	M420.9,297.6c6.2,0,14.9,4.5,22.6,12.2c7.7,7.7,12.2,16.4,12.2,22.6"/>
<path fill="none" stroke="#1D1D1B" stroke-width="0.25" stroke-linecap="round" stroke-linejoin="round" stroke-miterlimit="10" d="
	M455.7,332.4c-6.2,0-14.9-4.5-22.6-12.2c-7.7-7.7-12.2-16.4-12.2-22.6"/>
<path fill="none" stroke="#1D1D1B" stroke-width="0.25" stroke-linecap="round" stroke-linejoin="round" stroke-miterlimit="10" d="
	M455.7,332.4c-4.9-1.2-12.8-6.6-20.5-14.2c-7.7-7.7-13-15.6-14.2-20.5"/>
<path fill="none" stroke="#1D1D1B" stroke-width="0.25" stroke-linecap="round" stroke-linejoin="round" stroke-miterlimit="10" d="
	M420.9,297.6c4.9,1.2,12.8,6.6,20.5,14.2c7.7,7.7,13,15.6,14.2,20.5"/>
<path fill="none" stroke="#1D1D1B" stroke-width="0.25" stroke-linecap="round" stroke-linejoin="round" stroke-miterlimit="10" d="
	M420.9,297.6c3.8,2.4,10.9,8.5,18.5,16.2c7.7,7.7,13.8,14.8,16.2,18.5"/>
<path fill="none" stroke="#1D1D1B" stroke-width="0.25" stroke-linecap="round" stroke-linejoin="round" stroke-miterlimit="10" d="
	M455.7,332.4c-3.8-2.4-10.9-8.5-18.5-16.2c-7.7-7.7-13.8-14.8-16.2-18.5"/>
<path fill="none" stroke="#1D1D1B" stroke-width="0.25" stroke-linecap="round" stroke-linejoin="round" stroke-miterlimit="10" d="
	M455.7,332.4c-3.1,3.1-9.8,5.3-17.5,5.3c-7.7,0-14.4-2.2-17.5-5.3"/>
<path fill="none" stroke="#1D1D1B" stroke-width="0.25" stroke-linecap="round" stroke-linejoin="round" stroke-miterlimit="10" d="
	M420.6,332.4c3.1-3.1,9.8-5.3,17.5-5.3c7.7,0,14.4,2.2,17.5,5.3"/>
<path fill="none" stroke="#1D1D1B" stroke-width="0.25" stroke-linecap="round" stroke-linejoin="round" stroke-miterlimit="10" d="
	M420.6,332.4c3.1-1.9,9.8-3.2,17.5-3.2c7.7,0,14.4,1.3,17.5,3.2"/>
<path fill="none" stroke="#1D1D1B" stroke-width="0.25" stroke-linecap="round" stroke-linejoin="round" stroke-miterlimit="10" d="
	M455.7,332.4c-3.1,1.9-9.8,3.2-17.5,3.2c-7.7,0-14.4-1.3-17.5-3.2"/>
<path fill="none" stroke="#1D1D1B" stroke-width="0.25" stroke-linecap="round" stroke-linejoin="round" stroke-miterlimit="10" d="
	M455.7,332.4c-3.1,0.7-9.8,1.2-17.5,1.2s-14.4-0.5-17.5-1.2"/>
<path fill="none" stroke="#1D1D1B" stroke-width="0.25" stroke-linecap="round" stroke-linejoin="round" stroke-miterlimit="10" d="
	M420.6,332.4c3.1-0.7,9.8-1.2,17.5-1.2c7.7,0,14.4,0.5,17.5,1.2"/>
<path fill="none" stroke="#1D1D1B" stroke-width="0.25" stroke-linecap="round" stroke-linejoin="round" stroke-miterlimit="10" d="
	M455.7,332.4c-3.1-3.1-5.3-9.8-5.3-17.5c0-7.7,2.2-14.4,5.3-17.5"/>
<path fill="none" stroke="#1D1D1B" stroke-width="0.25" stroke-linecap="round" stroke-linejoin="round" stroke-miterlimit="10" d="
	M455.7,297.3c3.1,3.1,5.3,9.8,5.3,17.5c0,7.7-2.1,14.4-5.3,17.5"/>
<path fill="none" stroke="#1D1D1B" stroke-width="0.25" stroke-linecap="round" stroke-linejoin="round" stroke-miterlimit="10" d="
	M455.7,297.3c1.9,3.1,3.2,9.8,3.2,17.5c0,7.7-1.3,14.4-3.2,17.5"/>
<path fill="none" stroke="#1D1D1B" stroke-width="0.25" stroke-linecap="round" stroke-linejoin="round" stroke-miterlimit="10" d="
	M455.7,332.4c-1.9-3.1-3.2-9.8-3.2-17.5c0-7.7,1.3-14.4,3.2-17.5"/>
<path fill="none" stroke="#1D1D1B" stroke-width="0.25" stroke-linecap="round" stroke-linejoin="round" stroke-miterlimit="10" d="
	M455.7,332.4c-0.7-3.1-1.2-9.8-1.2-17.5c0-7.7,0.5-14.4,1.2-17.5"/>
<path fill="none" stroke="#1D1D1B" stroke-width="0.25" stroke-linecap="round" stroke-linejoin="round" stroke-miterlimit="10" d="
	M455.7,297.3c0.7,3.1,1.2,9.8,1.2,17.5c0,7.7-0.5,14.4-1.2,17.5"/>
</svg>
