<?xml version="1.0" encoding="utf-8"?>
<!-- Generator: Adobe Illustrator 17.1.0, SVG Export Plug-In . SVG Version: 6.00 Build 0)  -->
<!DOCTYPE svg PUBLIC "-//W3C//DTD SVG 1.1//EN" "http://www.w3.org/Graphics/SVG/1.1/DTD/svg11.dtd">
<svg version="1.1" xmlns="http://www.w3.org/2000/svg" xmlns:xlink="http://www.w3.org/1999/xlink" x="0px" y="0px"
	 viewBox="0 0 1200 1200" enable-background="new 0 0 1200 1200" xml:space="preserve">
<g id="Layer_1" display="none">
	<g display="inline">
		
			<path fill="none" stroke="#1D1D1B" stroke-width="0.75" stroke-linecap="round" stroke-linejoin="round" stroke-miterlimit="10" d="
			M78.8,78.8c93,0,223.5,67.5,339,183s183,246,183,339"/>
		
			<path fill="none" stroke="#1D1D1B" stroke-width="0.75" stroke-linecap="round" stroke-linejoin="round" stroke-miterlimit="10" d="
			M599.2,599.3c-92.8,0-223.1-67.5-338.4-183s-182.6-246-182.6-339"/>
		
			<path fill="none" stroke="#1D1D1B" stroke-width="0.75" stroke-linecap="round" stroke-linejoin="round" stroke-miterlimit="10" d="
			M599.2,599.3c-73.5-18-192-99-307.5-213c-115.5-115.5-195-234-213-307.5"/>
		
			<path fill="none" stroke="#1D1D1B" stroke-width="0.75" stroke-linecap="round" stroke-linejoin="round" stroke-miterlimit="10" d="
			M78.8,78.8c73.5,18,192,99,307.5,213c115.5,115.5,195,234,213,307.5"/>
		
			<path fill="none" stroke="#1D1D1B" stroke-width="0.75" stroke-linecap="round" stroke-linejoin="round" stroke-miterlimit="10" d="
			M78.8,78.8c57,36,163.5,127.5,277.5,243c115.5,115.5,207,222,243,277.5"/>
		
			<path fill="none" stroke="#1D1D1B" stroke-width="0.75" stroke-linecap="round" stroke-linejoin="round" stroke-miterlimit="10" d="
			M599.2,599.3c-57-36-163.5-127.5-277.5-243c-115.5-115.5-207-222-243-277.5"/>
		
			<path fill="none" stroke="#1D1D1B" stroke-width="0.75" stroke-linecap="round" stroke-linejoin="round" stroke-miterlimit="10" d="
			M78.8,78.8c46.5-46.5,147-79.5,262.5-79.5s216,31.5,262.5,79.5"/>
		
			<path fill="none" stroke="#1D1D1B" stroke-width="0.75" stroke-linecap="round" stroke-linejoin="round" stroke-miterlimit="10" d="
			M603.8,78.8c-46.5,46.5-147,79.5-262.5,79.5s-216-31.5-262.5-79.5"/>
		
			<path fill="none" stroke="#1D1D1B" stroke-width="0.75" stroke-linecap="round" stroke-linejoin="round" stroke-miterlimit="10" d="
			M603.8,78.8c-46.5,28.5-147,48-262.5,48s-216-19.5-262.5-48"/>
		
			<path fill="none" stroke="#1D1D1B" stroke-width="0.75" stroke-linecap="round" stroke-linejoin="round" stroke-miterlimit="10" d="
			M78.8,78.8c46.5-28.5,147-48,262.5-48s216,19.5,262.5,48"/>
		
			<path fill="none" stroke="#1D1D1B" stroke-width="0.75" stroke-linecap="round" stroke-linejoin="round" stroke-miterlimit="10" d="
			M78.8,78.8c46.5-10.5,147-18,262.5-18s216,7.5,262.5,18"/>
		
			<path fill="none" stroke="#1D1D1B" stroke-width="0.75" stroke-linecap="round" stroke-linejoin="round" stroke-miterlimit="10" d="
			M603.8,78.8c-46.5,10.5-147,18-262.5,18s-216-7.5-262.5-18"/>
		
			<path fill="none" stroke="#1D1D1B" stroke-width="0.75" stroke-linecap="round" stroke-linejoin="round" stroke-miterlimit="10" d="
			M78.8,78.8c46.5,46.5,79.5,147,79.5,262.5s-33,216-79.5,262.5"/>
		
			<path fill="none" stroke="#1D1D1B" stroke-width="0.75" stroke-linecap="round" stroke-linejoin="round" stroke-miterlimit="10" d="
			M78.8,78.8c28.5,46.5,48,147,48,262.5s-19.5,216-48,262.5"/>
		
			<path fill="none" stroke="#1D1D1B" stroke-width="0.75" stroke-linecap="round" stroke-linejoin="round" stroke-miterlimit="10" d="
			M78.8,78.8c10.5,46.5,18,147,18,262.5s-7.5,216-18,262.5"/>
		
			<path fill="none" stroke="#1D1D1B" stroke-width="0.75" stroke-linecap="round" stroke-linejoin="round" stroke-miterlimit="10" d="
			M1121.2,78.8c46.5,46.5,79.5,147,79.5,262.5s-33,216-79.5,262.5"/>
		
			<path fill="none" stroke="#1D1D1B" stroke-width="0.75" stroke-linecap="round" stroke-linejoin="round" stroke-miterlimit="10" d="
			M1121.2,603.8c-46.5-46.5-79.5-147-79.5-262.5s33-216,79.5-262.5"/>
		
			<path fill="none" stroke="#1D1D1B" stroke-width="0.75" stroke-linecap="round" stroke-linejoin="round" stroke-miterlimit="10" d="
			M1121.2,603.8c-28.5-46.5-48-147-48-262.5s19.5-216,48-262.5"/>
		
			<path fill="none" stroke="#1D1D1B" stroke-width="0.75" stroke-linecap="round" stroke-linejoin="round" stroke-miterlimit="10" d="
			M1121.2,78.8c28.5,46.5,48,147,48,262.5s-19.5,216-48,262.5"/>
		
			<path fill="none" stroke="#1D1D1B" stroke-width="0.75" stroke-linecap="round" stroke-linejoin="round" stroke-miterlimit="10" d="
			M1121.2,78.8c10.5,46.5,18,147,18,262.5s-7.5,216-18,262.5"/>
		
			<path fill="none" stroke="#1D1D1B" stroke-width="0.75" stroke-linecap="round" stroke-linejoin="round" stroke-miterlimit="10" d="
			M1121.2,603.8c-10.5-46.5-18-147-18-262.5s7.5-216,18-262.5"/>
		
			<path fill="none" stroke="#1D1D1B" stroke-width="0.75" stroke-linecap="round" stroke-linejoin="round" stroke-miterlimit="10" d="
			M1121.2,78.8c-46.5,46.5-147,79.5-262.5,79.5s-216-31.5-262.5-79.5"/>
		
			<path fill="none" stroke="#1D1D1B" stroke-width="0.75" stroke-linecap="round" stroke-linejoin="round" stroke-miterlimit="10" d="
			M594.7,78.8c46.5-46.5,147-79.5,262.5-79.5c115.5,0,216,31.5,262.5,79.5"/>
		
			<path fill="none" stroke="#1D1D1B" stroke-width="0.75" stroke-linecap="round" stroke-linejoin="round" stroke-miterlimit="10" d="
			M594.7,78.8c46.5-28.5,147-48,262.5-48c115.5,0,216,19.5,262.5,48"/>
		
			<path fill="none" stroke="#1D1D1B" stroke-width="0.75" stroke-linecap="round" stroke-linejoin="round" stroke-miterlimit="10" d="
			M1121.2,78.8c-46.5,28.5-147,48-262.5,48s-216-19.5-262.5-48"/>
		
			<path fill="none" stroke="#1D1D1B" stroke-width="0.75" stroke-linecap="round" stroke-linejoin="round" stroke-miterlimit="10" d="
			M1121.2,78.8c-46.5,10.5-147,18-262.5,18s-216-7.5-262.5-18"/>
		
			<path fill="none" stroke="#1D1D1B" stroke-width="0.75" stroke-linecap="round" stroke-linejoin="round" stroke-miterlimit="10" d="
			M594.7,78.8c46.5-10.5,147-18,262.5-18c115.5,0,216,7.5,262.5,18"/>
		
			<path fill="none" stroke="#1D1D1B" stroke-width="0.75" stroke-linecap="round" stroke-linejoin="round" stroke-miterlimit="10" d="
			M599.2,599.3c0-93,67.5-223.5,183-339c115.5-115.5,246-183,339-183"/>
		
			<path fill="none" stroke="#1D1D1B" stroke-width="0.75" stroke-linecap="round" stroke-linejoin="round" stroke-miterlimit="10" d="
			M1121.2,78.8c0,93-67.5,223.5-183,339s-246,183-339,183"/>
		
			<path fill="none" stroke="#1D1D1B" stroke-width="0.75" stroke-linecap="round" stroke-linejoin="round" stroke-miterlimit="10" d="
			M1121.2,78.8c-18,73.5-99,192-213,307.5c-115.5,115.5-234,195-307.5,213"/>
		
			<path fill="none" stroke="#1D1D1B" stroke-width="0.75" stroke-linecap="round" stroke-linejoin="round" stroke-miterlimit="10" d="
			M599.2,599.3c18-73.5,99-192,213-307.5c115.5-115.5,234-195,307.5-213"/>
		
			<path fill="none" stroke="#1D1D1B" stroke-width="0.75" stroke-linecap="round" stroke-linejoin="round" stroke-miterlimit="10" d="
			M599.2,599.3c36-57,127.5-163.5,243-277.5c115.5-115.5,222-207,277.5-243"/>
		
			<path fill="none" stroke="#1D1D1B" stroke-width="0.75" stroke-linecap="round" stroke-linejoin="round" stroke-miterlimit="10" d="
			M1121.2,78.8c-36,57-127.5,163.5-243,277.5c-115.5,115.5-222,207-277.5,243"/>
		
			<path fill="none" stroke="#1D1D1B" stroke-width="0.75" stroke-linecap="round" stroke-linejoin="round" stroke-miterlimit="10" d="
			M78.8,1121.2c0-93,67.5-223.5,183-339c115.5-115.5,246-183,339-183"/>
		
			<path fill="none" stroke="#1D1D1B" stroke-width="0.75" stroke-linecap="round" stroke-linejoin="round" stroke-miterlimit="10" d="
			M599.2,599.3c0,93-67.5,223.5-183,339c-115.5,115.5-246,183-339,183"/>
		
			<path fill="none" stroke="#1D1D1B" stroke-width="0.75" stroke-linecap="round" stroke-linejoin="round" stroke-miterlimit="10" d="
			M599.2,599.3c-18,73.5-99,192-213,307.5c-115.5,115.5-234,195-307.5,213"/>
		
			<path fill="none" stroke="#1D1D1B" stroke-width="0.75" stroke-linecap="round" stroke-linejoin="round" stroke-miterlimit="10" d="
			M78.8,1121.2c18-73.5,99-192,213-307.5c115.5-115.5,234-195,307.5-213"/>
		
			<path fill="none" stroke="#1D1D1B" stroke-width="0.75" stroke-linecap="round" stroke-linejoin="round" stroke-miterlimit="10" d="
			M78.8,1121.2c36-57,127.5-163.5,243-277.5c115.5-115.5,222-207,277.5-243"/>
		
			<path fill="none" stroke="#1D1D1B" stroke-width="0.75" stroke-linecap="round" stroke-linejoin="round" stroke-miterlimit="10" d="
			M78.8,1121.2c57-36,163.5-127.5,277.5-243c115.5-115.5,207-222,243-277.5"/>
		
			<path fill="none" stroke="#1D1D1B" stroke-width="0.75" stroke-linecap="round" stroke-linejoin="round" stroke-miterlimit="10" d="
			M78.8,1121.2c46.5-46.5,147-79.5,262.5-79.5s216,33,262.5,79.5"/>
		
			<path fill="none" stroke="#1D1D1B" stroke-width="0.75" stroke-linecap="round" stroke-linejoin="round" stroke-miterlimit="10" d="
			M603.8,1121.2c-46.5,46.5-147,79.5-262.5,79.5s-216-33-262.5-79.5"/>
		
			<path fill="none" stroke="#1D1D1B" stroke-width="0.75" stroke-linecap="round" stroke-linejoin="round" stroke-miterlimit="10" d="
			M603.8,1121.2c-46.5,28.5-147,48-262.5,48s-216-19.5-262.5-48"/>
		
			<path fill="none" stroke="#1D1D1B" stroke-width="0.75" stroke-linecap="round" stroke-linejoin="round" stroke-miterlimit="10" d="
			M78.8,1121.2c46.5-28.5,147-48,262.5-48s216,19.5,262.5,48"/>
		
			<path fill="none" stroke="#1D1D1B" stroke-width="0.75" stroke-linecap="round" stroke-linejoin="round" stroke-miterlimit="10" d="
			M78.8,1121.2c46.5-10.5,147-18,262.5-18s216,7.5,262.5,18"/>
		
			<path fill="none" stroke="#1D1D1B" stroke-width="0.75" stroke-linecap="round" stroke-linejoin="round" stroke-miterlimit="10" d="
			M603.8,1121.2c-46.5,10.5-147,18-262.5,18s-216-7.5-262.5-18"/>
		
			<path fill="none" stroke="#1D1D1B" stroke-width="0.75" stroke-linecap="round" stroke-linejoin="round" stroke-miterlimit="10" d="
			M78.8,1121.2c-46.5-46.5-79.5-147-79.5-262.5s33-216,79.5-262.5"/>
		
			<path fill="none" stroke="#1D1D1B" stroke-width="0.75" stroke-linecap="round" stroke-linejoin="round" stroke-miterlimit="10" d="
			M78.8,594.7c46.5,46.5,79.5,147,79.5,262.5c0,115.5-31.5,216-79.5,262.5"/>
		
			<path fill="none" stroke="#1D1D1B" stroke-width="0.75" stroke-linecap="round" stroke-linejoin="round" stroke-miterlimit="10" d="
			M78.8,594.7c28.5,46.5,48,147,48,262.5c0,115.5-19.5,216-48,262.5"/>
		
			<path fill="none" stroke="#1D1D1B" stroke-width="0.75" stroke-linecap="round" stroke-linejoin="round" stroke-miterlimit="10" d="
			M78.8,1121.2c-28.5-46.5-48-147-48-262.5s19.5-216,48-262.5"/>
		
			<path fill="none" stroke="#1D1D1B" stroke-width="0.75" stroke-linecap="round" stroke-linejoin="round" stroke-miterlimit="10" d="
			M78.8,1121.2c-10.5-46.5-18-147-18-262.5s7.5-216,18-262.5"/>
		
			<path fill="none" stroke="#1D1D1B" stroke-width="0.75" stroke-linecap="round" stroke-linejoin="round" stroke-miterlimit="10" d="
			M78.8,594.7c10.5,46.5,18,147,18,262.5c0,115.5-7.5,216-18,262.5"/>
		
			<path fill="none" stroke="#1D1D1B" stroke-width="0.75" stroke-linecap="round" stroke-linejoin="round" stroke-miterlimit="10" d="
			M599.2,599.3c93,0,223.5,67.5,339,183s183,246,183,339"/>
		
			<path fill="none" stroke="#1D1D1B" stroke-width="0.75" stroke-linecap="round" stroke-linejoin="round" stroke-miterlimit="10" d="
			M1121.2,1121.2c-93,0-223.5-67.5-339-183c-115.5-115.5-183-246-183-339"/>
		
			<path fill="none" stroke="#1D1D1B" stroke-width="0.75" stroke-linecap="round" stroke-linejoin="round" stroke-miterlimit="10" d="
			M1121.2,1121.2c-73.5-18-192-99-307.5-213c-115.5-115.5-195-234-213-307.5"/>
		
			<path fill="none" stroke="#1D1D1B" stroke-width="0.75" stroke-linecap="round" stroke-linejoin="round" stroke-miterlimit="10" d="
			M599.2,599.3c73.5,18,192,99,307.5,213c115.5,115.5,195,234,213,307.5"/>
		
			<path fill="none" stroke="#1D1D1B" stroke-width="0.75" stroke-linecap="round" stroke-linejoin="round" stroke-miterlimit="10" d="
			M599.2,599.3c57,36,163.5,127.5,277.5,243c115.5,115.5,207,222,243,277.5"/>
		
			<path fill="none" stroke="#1D1D1B" stroke-width="0.75" stroke-linecap="round" stroke-linejoin="round" stroke-miterlimit="10" d="
			M1121.2,1121.2c-57-36-163.5-127.5-277.5-243c-115.5-115.5-207-222-243-277.5"/>
		
			<path fill="none" stroke="#1D1D1B" stroke-width="0.75" stroke-linecap="round" stroke-linejoin="round" stroke-miterlimit="10" d="
			M1121.2,1121.2c-46.5,46.5-147,79.5-262.5,79.5s-216-33-262.5-79.5"/>
		
			<path fill="none" stroke="#1D1D1B" stroke-width="0.75" stroke-linecap="round" stroke-linejoin="round" stroke-miterlimit="10" d="
			M594.7,1121.2c46.5-46.5,147-79.5,262.5-79.5c115.5,0,216,33,262.5,79.5"/>
		
			<path fill="none" stroke="#1D1D1B" stroke-width="0.75" stroke-linecap="round" stroke-linejoin="round" stroke-miterlimit="10" d="
			M594.7,1121.2c46.5-28.5,147-48,262.5-48c115.5,0,216,19.5,262.5,48"/>
		
			<path fill="none" stroke="#1D1D1B" stroke-width="0.75" stroke-linecap="round" stroke-linejoin="round" stroke-miterlimit="10" d="
			M1121.2,1121.2c-46.5,28.5-147,48-262.5,48s-216-19.5-262.5-48"/>
		
			<path fill="none" stroke="#1D1D1B" stroke-width="0.75" stroke-linecap="round" stroke-linejoin="round" stroke-miterlimit="10" d="
			M1121.2,1121.2c-46.5,10.5-147,18-262.5,18s-216-7.5-262.5-18"/>
		
			<path fill="none" stroke="#1D1D1B" stroke-width="0.75" stroke-linecap="round" stroke-linejoin="round" stroke-miterlimit="10" d="
			M594.7,1121.2c46.5-10.5,147-18,262.5-18c115.5,0,216,7.5,262.5,18"/>
		
			<path fill="none" stroke="#1D1D1B" stroke-width="0.75" stroke-linecap="round" stroke-linejoin="round" stroke-miterlimit="10" d="
			M1121.2,1121.2c-46.5-46.5-79.5-147-79.5-262.5s33-216,79.5-262.5"/>
		
			<path fill="none" stroke="#1D1D1B" stroke-width="0.75" stroke-linecap="round" stroke-linejoin="round" stroke-miterlimit="10" d="
			M1121.2,594.7c46.5,46.5,79.5,147,79.5,262.5c0,115.5-31.5,216-79.5,262.5"/>
		
			<path fill="none" stroke="#1D1D1B" stroke-width="0.75" stroke-linecap="round" stroke-linejoin="round" stroke-miterlimit="10" d="
			M1121.2,594.7c28.5,46.5,48,147,48,262.5c0,115.5-19.5,216-48,262.5"/>
		
			<path fill="none" stroke="#1D1D1B" stroke-width="0.75" stroke-linecap="round" stroke-linejoin="round" stroke-miterlimit="10" d="
			M1121.2,1121.2c-28.5-46.5-48-147-48-262.5s19.5-216,48-262.5"/>
		
			<path fill="none" stroke="#1D1D1B" stroke-width="0.75" stroke-linecap="round" stroke-linejoin="round" stroke-miterlimit="10" d="
			M1121.2,1121.2c-10.5-46.5-18-147-18-262.5s7.5-216,18-262.5"/>
		
			<path fill="none" stroke="#1D1D1B" stroke-width="0.75" stroke-linecap="round" stroke-linejoin="round" stroke-miterlimit="10" d="
			M1121.2,594.7c10.5,46.5,18,147,18,262.5c0,115.5-7.5,216-18,262.5"/>
	</g>
</g>
<g id="Layer_2">
	<g>
		<path fill="none" stroke="#000000" stroke-width="0.75" stroke-miterlimit="10" d="M600,600.1C600,600.1,600,600.1,600,600.1
			C600,600.1,600,600.1,600,600.1c21.2,85,113.2,221.3,245.4,353.5c70.9,70.9,142.9,130.1,207.6,173.2c35.4,8.9,67.1,20.7,93.5,34.8
			c-68.5-53-164.9-139.4-267.3-241.8C747.1,787.5,641.2,665.1,600,600.1z"/>
		<path fill="none" stroke="#000000" stroke-width="0.75" stroke-miterlimit="10" d="M1195.5,601.3c0.2-0.4,0.5-0.9,0.7-1.3
			c-0.2-0.4-0.5-0.8-0.7-1.3c-0.4,0.4-0.8,0.9-1.2,1.3C1194.7,600.4,1195.1,600.9,1195.5,601.3z"/>
		<path fill="none" stroke="#000000" stroke-width="0.75" stroke-miterlimit="10" d="M1126.8,1053.1c17.5,26.3,32.4,51.4,44.2,74.7
			c-7.6-27.9-13.9-60.4-18.4-96.3c-11.8-23.8-25.6-48.1-41.4-72.6C1114.2,992.3,1119.5,1024,1126.8,1053.1z"/>
		<path fill="none" stroke="#000000" stroke-width="0.75" stroke-miterlimit="10" d="M919.7,879.3
			C787.5,747.1,665.1,641.2,600,600.1c41.1,65,147,187.4,279.3,319.7c102.4,102.4,198.8,188.8,267.3,241.8
			c21,11.2,38.7,23.7,52.4,37.4c0,0,0-0.1,0-0.1c-13.6-13.6-26.2-31.3-37.3-52.2C1108.7,1078.2,1022.2,981.8,919.7,879.3z"/>
		<path fill="none" stroke="#000000" stroke-width="0.75" stroke-miterlimit="10" d="M1198.9,1198.9c-9.3-14.6-21.9-32.3-37.3-52.2
			C1172.8,1167.6,1185.3,1185.3,1198.9,1198.9z"/>
		<path fill="none" stroke="#000000" stroke-width="0.75" stroke-miterlimit="10" d="M1161.6,1146.7c15.4,19.9,28,37.5,37.3,52.2
			c0,0,0.1,0.1,0.1,0.1c0,0,0,0,0,0c-10.6-17.6-20.1-41.9-28.1-71.2c-11.8-23.3-26.7-48.4-44.2-74.7
			C1135.7,1088.6,1147.5,1120.3,1161.6,1146.7z"/>
		<path fill="none" stroke="#000000" stroke-width="0.75" stroke-miterlimit="10" d="M1108.3,897c0,21.2,1,41.8,2.8,61.9
			c15.9,24.5,29.7,48.8,41.4,72.6c-5.2-41.2-8.1-86.6-8.1-134.5c0-128.4,20.7-239.8,51-295.6c-0.4-0.4-0.8-0.9-1.2-1.3
			C1143.3,655.5,1108.3,767.5,1108.3,897z"/>
		<path fill="none" stroke="#000000" stroke-width="0.75" stroke-miterlimit="10" d="M1108.4,303.1c0,129.4,34.9,241.4,86,296.9
			c0.4-0.4,0.8-0.9,1.2-1.3c-30.3-55.9-51-167.2-51-295.6c0-47.8,2.9-93.3,8.1-134.4c-11.7,23.8-25.5,48.1-41.4,72.5
			C1109.4,261.3,1108.4,281.9,1108.4,303.1z"/>
		<path fill="none" stroke="#000000" stroke-width="0.75" stroke-miterlimit="10" d="M600,600C600,600,600,600,600,600
			c65.1-41.1,187.5-147,319.8-279.3c102.4-102.3,188.8-198.6,241.8-267.2c11.2-21,23.8-38.8,37.5-52.4
			c-13.7,13.7-31.4,26.3-52.5,37.5c-68.5,53-164.8,139.3-267.2,241.7C747,412.6,641.1,535,600,600z"/>
		<path fill="none" stroke="#000000" stroke-width="0.75" stroke-miterlimit="10" d="M1146.5,38.6c20-15.5,37.8-28.3,52.5-37.6
			c0,0,0,0,0,0c-17.6,10.6-42,20.1-71.3,28.1c-23.3,11.8-48.4,26.7-74.6,44.2C1088.4,64.4,1120.1,52.6,1146.5,38.6z"/>
		<path fill="none" stroke="#000000" stroke-width="0.75" stroke-miterlimit="10" d="M845.5,246.4C713.2,378.7,621.1,515,600,600
			c0,0,0,0,0,0c41.2-65,147-187.5,279.4-319.8C981.7,177.9,1078,91.5,1146.5,38.6c-26.4,14.1-58.1,25.8-93.5,34.7
			C988.3,116.3,916.4,175.5,845.5,246.4z"/>
		<path fill="none" stroke="#000000" stroke-width="0.75" stroke-miterlimit="10" d="M1152.6,168.6c4.5-35.8,10.7-68.2,18.3-96.1
			c-11.8,23.2-26.7,48.3-44.1,74.5c-7.3,29.1-12.6,60.8-15.6,94.2C1127.1,216.7,1140.9,192.5,1152.6,168.6z"/>
		<path fill="none" stroke="#000000" stroke-width="0.75" stroke-miterlimit="10" d="M600,600C600,600,600,600,600,600
			c85.1-21.1,221.3-113.2,353.6-245.5c70.9-70.9,130.1-142.9,173.2-207.5c8.9-35.4,20.7-67.1,34.8-93.5
			c-53,68.5-139.4,164.8-241.8,267.2C787.5,453,665.1,558.9,600,600z"/>
		<path fill="none" stroke="#000000" stroke-width="0.75" stroke-miterlimit="10" d="M598.7,1195.5c-0.7,0.6-1.4,1.2-2,1.8
			c0.3,0.1,0.6,0.1,0.9,0.2c0.8-0.4,1.6-0.9,2.4-1.3C599.6,1196,599.2,1195.7,598.7,1195.5z"/>
		<path fill="none" stroke="#000000" stroke-width="0.75" stroke-miterlimit="10" d="M246.4,354.6C175.5,283.7,116.3,211.7,73.3,147
			c7.3,29.1,12.6,60.8,15.6,94.2c32.6,50.2,73.4,100.9,121.7,149.2C342.5,522.4,493,599.7,599.1,600c0.2,0,0.4,0,0.6,0
			C514.8,578.8,378.6,486.7,246.4,354.6z"/>
		<path fill="none" stroke="#000000" stroke-width="0.75" stroke-miterlimit="10" d="M599.1,600c0.2,0,0.4,0,0.6,0c0,0,0.1,0,0.1,0
			c0,0-0.1,0-0.1,0C599.6,600,599.3,600,599.1,600z"/>
		<path fill="none" stroke="#000000" stroke-width="0.75" stroke-miterlimit="10" d="M599.9,600C599.9,600,599.9,600,599.9,600
			C599.9,600,599.9,600,599.9,600C599.9,600,599.9,600,599.9,600C599.9,600,599.9,600,599.9,600z"/>
		<path fill="none" stroke="#000000" stroke-width="0.75" stroke-miterlimit="10" d="M599.9,600c0,0-0.1,0-0.1,0
			C599.8,600,599.8,600,599.9,600C599.9,600,599.9,600,599.9,600C599.9,600,599.9,600,599.9,600z"/>
		<path fill="none" stroke="#000000" stroke-width="0.75" stroke-miterlimit="10" d="M1053,73.3c26.3-17.5,51.4-32.4,74.6-44.2
			c-27.9,7.6-60.5,13.8-96.3,18.3c-23.8,11.7-48.1,25.6-72.5,41.4C992.2,85.9,1023.9,80.6,1053,73.3z"/>
		<path fill="none" stroke="#000000" stroke-width="0.75" stroke-miterlimit="10" d="M88.8,241.2c1.8,20.1,2.8,40.7,2.8,61.9
			c0,129.4-34.9,241.5-86,296.9c51,55.5,86,167.6,86,296.9c0,21.2-1,41.8-2.8,61.8c32.6-50.2,73.4-100.9,121.7-149.2
			C342.5,677.6,493,600.3,599.1,600c-106.1-0.3-256.6-77.6-388.6-209.6C162.3,342.2,121.4,291.4,88.8,241.2z"/>
		<path fill="none" stroke="#000000" stroke-width="0.75" stroke-miterlimit="10" d="M73.3,147c-17.5-26.2-32.4-51.3-44.2-74.5
			c7.6,27.9,13.8,60.4,18.3,96.2c11.7,23.8,25.5,48.1,41.4,72.5C85.9,207.8,80.6,176.1,73.3,147z"/>
		<path fill="none" stroke="#000000" stroke-width="0.75" stroke-miterlimit="10" d="M88.8,241.2c-15.9-24.5-29.7-48.7-41.4-72.5
			c5.2,41.1,8.1,86.6,8.1,134.4c0,128.4-20.7,239.8-51,295.6c0.4,0.4,0.8,0.9,1.2,1.3c51-55.5,86-167.5,86-296.9
			C91.7,281.9,90.6,261.3,88.8,241.2z"/>
		<path fill="none" stroke="#000000" stroke-width="0.75" stroke-miterlimit="10" d="M599.9,600C599.9,600,599.9,600,599.9,600
			C599.9,600,599.9,600,599.9,600C599.9,600,599.9,600,599.9,600C599.9,600,599.9,600,599.9,600z"/>
		<rect x="600" y="600" fill="none" stroke="#000000" stroke-width="0.75" stroke-miterlimit="10" width="0" height="0"/>
		<path fill="none" stroke="#000000" stroke-width="0.75" stroke-miterlimit="10" d="M600,600.1c0,106.2,77.4,257.1,209.6,389.4
			c48.3,48.3,99.1,89.2,149.2,121.7c33.4,3,65.1,8.3,94.3,15.6c-64.7-43.1-136.7-102.3-207.6-173.2
			C713.2,821.4,621.2,685.1,600,600.1z"/>
		<rect x="600" y="600" fill="none" stroke="#000000" stroke-width="0.75" stroke-miterlimit="10" width="0" height="0"/>
		<path fill="none" stroke="#000000" stroke-width="0.75" stroke-miterlimit="10" d="M600,600.1C600,600.1,600,600.1,600,600.1
			L600,600.1L600,600.1L600,600.1C600,600,600,600,600,600.1c0.1,106.2-77.4,257.1-209.6,389.4c-48.3,48.3-99,89.1-149.2,121.7
			c20.1-1.8,40.7-2.8,61.9-2.8c129.4,0,241.4,35,296.9,85.9c55.5-51,167.5-85.9,296.9-85.9c21.2,0,41.8,1,61.9,2.8
			c-50.2-32.6-100.9-73.4-149.2-121.7C677.4,857.2,600,706.3,600,600.1z"/>
		<path fill="none" stroke="#000000" stroke-width="0.75" stroke-miterlimit="10" d="M599.9,600C599.9,600,599.9,600,599.9,600
			C599.9,600,600,600,599.9,600C600,600,600,600,599.9,600C600,600,600,600,599.9,600z"/>
		
			<rect x="600" y="600" transform="matrix(0.8192 0.5735 -0.5735 0.8192 452.5509 -235.5903)" fill="none" stroke="#000000" stroke-width="0.75" stroke-miterlimit="10" width="0" height="0"/>
		<path fill="none" stroke="#000000" stroke-width="0.75" stroke-miterlimit="10" d="M600,600C600,600,599.9,600,600,600
			c-41.1,65.1-147,187.5-279.3,319.7c-102.4,102.4-198.8,188.8-267.3,241.8c26.4-14.1,58.1-25.9,93.6-34.8
			c64.7-43.1,136.7-102.3,207.6-173.2C486.8,821.3,578.8,685.1,600,600z"/>
		<path fill="none" stroke="#000000" stroke-width="0.75" stroke-miterlimit="10" d="M246.5,845.4
			c-70.9,70.9-130.1,142.9-173.2,207.6c-8.9,35.4-20.7,67-34.7,93.5c53-68.5,139.4-164.9,241.7-267.2
			C412.5,747,534.9,641.2,599.9,600c0,0-0.1,0-0.1,0C514.8,621.3,378.6,713.3,246.5,845.4z"/>
		<path fill="none" stroke="#000000" stroke-width="0.75" stroke-miterlimit="10" d="M599.8,600c-0.2,0-0.4,0-0.6,0
			c-106.1,0.3-256.7,77.6-388.6,209.6c-48.3,48.3-89.1,99-121.7,149.2c-3,33.5-8.3,65.2-15.6,94.3
			c43.1-64.7,102.3-136.7,173.2-207.6C378.6,713.3,514.8,621.3,599.8,600z"/>
		<path fill="none" stroke="#000000" stroke-width="0.75" stroke-miterlimit="10" d="M599.9,600C599.8,600,599.8,600,599.9,600
			C599.8,600,599.9,600,599.9,600C599.9,600,599.9,600,599.9,600C599.9,600,599.9,600,599.9,600z"/>
		<path fill="none" stroke="#000000" stroke-width="0.75" stroke-miterlimit="10" d="M47.4,1031.3c-4.5,35.9-10.7,68.4-18.4,96.4
			c11.8-23.3,26.7-48.4,44.2-74.6c7.3-29.1,12.6-60.8,15.6-94.3C73,983.2,59.2,1007.5,47.4,1031.3z"/>
		<path fill="none" stroke="#000000" stroke-width="0.75" stroke-miterlimit="10" d="M599.9,600C599.9,600,599.9,600,599.9,600
			C599.9,600,599.9,600,599.9,600C599.9,600,599.9,600,599.9,600C599.9,600,599.9,600,599.9,600z"/>
		<path fill="none" stroke="#000000" stroke-width="0.75" stroke-miterlimit="10" d="M4.5,601.3c-0.6,0.7-1.2,1.4-1.8,2
			c11.1,56.5,18.7,166.8,18.6,293.6c0,87.9-3.6,167.7-9.5,227.3c7.8-29.5,19.8-60.7,35.6-92.9c5.2-41.1,8.1-86.5,8.1-134.4
			C55.5,768.5,34.8,657.2,4.5,601.3z"/>
		<path fill="none" stroke="#000000" stroke-width="0.75" stroke-miterlimit="10" d="M91.7,896.9c0-129.4-34.9-241.5-86-296.9
			c-0.4,0.4-0.8,0.9-1.2,1.3c30.3,55.9,51,167.2,51,295.7c0,47.8-2.9,93.2-8.1,134.4c11.7-23.8,25.6-48.1,41.4-72.6
			C90.6,938.7,91.7,918.1,91.7,896.9z"/>
		<path fill="none" stroke="#000000" stroke-width="0.75" stroke-miterlimit="10" d="M38.5,53.5C23,33.5,10.3,15.7,1,1
			c10.6,17.6,20.1,42.1,28.1,71.5c11.8,23.2,26.7,48.3,44.2,74.5C64.4,111.6,52.6,79.9,38.5,53.5z"/>
		<path fill="none" stroke="#000000" stroke-width="0.75" stroke-miterlimit="10" d="M598.7,1195.5c0.4-0.4,0.9-0.8,1.3-1.2
			c-55.5-51-167.5-85.9-296.9-85.9c-21.2,0-41.8,1-61.9,2.8c-24.5,15.9-48.8,29.7-72.6,41.5c41.2-5.2,86.6-8.1,134.5-8.1
			C431.5,1144.5,542.8,1165.2,598.7,1195.5z"/>
		<path fill="none" stroke="#000000" stroke-width="0.75" stroke-miterlimit="10" d="M600,600C600,600,599.9,600,600,600
			C599.9,600,599.9,600,600,600C599.9,600,600,600,600,600C600,600,600,600,600,600z"/>
		<path fill="none" stroke="#000000" stroke-width="0.75" stroke-miterlimit="10" d="M146.9,1126.7c-26.3,17.5-51.4,32.4-74.7,44.2
			c27.9-7.6,60.5-13.9,96.3-18.4c23.8-11.8,48.2-25.6,72.6-41.5C207.8,1114.1,176.1,1119.4,146.9,1126.7z"/>
		<path fill="none" stroke="#000000" stroke-width="0.75" stroke-miterlimit="10" d="M303.1,1144.6c-47.9,0-93.3,2.9-134.5,8.1
			c-32.1,15.9-63.3,27.8-92.8,35.6c59.6-5.9,139.4-9.5,227.3-9.5c126.8,0,237,7.5,293.6,18.6c0.6-0.6,1.3-1.2,2-1.8
			C542.8,1165.2,431.5,1144.5,303.1,1144.6z"/>
		<path fill="none" stroke="#000000" stroke-width="0.75" stroke-miterlimit="10" d="M390.4,989.5C522.6,857.2,600.1,706.3,600,600
			c0,0,0,0,0,0c-21.2,85-113.2,221.3-245.4,353.5c-70.9,70.9-142.9,130.1-207.6,173.2c29.1-7.3,60.8-12.6,94.3-15.6
			C291.4,1078.6,342.1,1037.7,390.4,989.5z"/>
		<path fill="none" stroke="#000000" stroke-width="0.75" stroke-miterlimit="10" d="M3.8,600c-0.4,0.8-0.9,1.6-1.3,2.4
			c0.1,0.3,0.1,0.6,0.2,0.9c0.6-0.6,1.2-1.3,1.8-2C4.3,600.9,4,600.5,3.8,600z"/>
		<path fill="none" stroke="#000000" stroke-width="0.75" stroke-miterlimit="10" d="M1,1.1C1,1,1,1,1,1.1C1,1,0.9,1,1,1.1
			C0.9,1,1,1,1,1.1C1,1,1,1,1,1.1z"/>
		<path fill="none" stroke="#000000" stroke-width="0.75" stroke-miterlimit="10" d="M241.2,88.8c-24.5-15.9-48.7-29.7-72.5-41.4
			c-35.8-4.5-68.3-10.7-96.2-18.3c23.2,11.8,48.3,26.7,74.6,44.2C176.1,80.6,207.8,85.9,241.2,88.8z"/>
		<path fill="none" stroke="#000000" stroke-width="0.75" stroke-miterlimit="10" d="M147,73.3c-26.2-17.5-51.3-32.4-74.6-44.2
			C43,21.1,18.7,11.6,1.1,1c14.7,9.3,32.4,22.1,52.4,37.5C79.9,52.6,111.6,64.4,147,73.3z"/>
		<path fill="none" stroke="#000000" stroke-width="0.75" stroke-miterlimit="10" d="M53.5,38.5C33.5,23.1,15.8,10.3,1.1,1
			C1,1,1,1,1,1C1,1,1,1,1,1.1C14.7,14.8,32.5,27.4,53.5,38.5z"/>
		<path fill="none" stroke="#000000" stroke-width="0.75" stroke-miterlimit="10" d="M601.3,4.6c-0.4-0.2-0.9-0.5-1.3-0.7
			c-0.4,0.2-0.9,0.5-1.3,0.7c0.4,0.4,0.9,0.8,1.3,1.2C600.4,5.3,600.9,5,601.3,4.6z"/>
		<path fill="none" stroke="#000000" stroke-width="0.75" stroke-miterlimit="10" d="M896.9,91.7c21.2,0,41.8-1,61.9-2.8
			c24.4-15.9,48.7-29.7,72.5-41.4c-41.1,5.2-86.6,8.1-134.4,8.1c-128.4,0-239.7-20.7-295.6-50.9c-0.4,0.4-0.9,0.8-1.3,1.2
			C655.5,56.8,767.5,91.7,896.9,91.7z"/>
		<path fill="none" stroke="#000000" stroke-width="0.75" stroke-miterlimit="10" d="M303.1,91.7c129.4,0,241.4-34.9,296.9-85.9
			c-0.4-0.4-0.9-0.8-1.3-1.2c-55.9,30.3-167.2,50.9-295.6,50.9c-47.9,0-93.3-2.9-134.4-8.1c23.8,11.7,48.1,25.6,72.5,41.4
			C261.3,90.6,281.9,91.7,303.1,91.7z"/>
		<path fill="none" stroke="#000000" stroke-width="0.75" stroke-miterlimit="10" d="M2,600c-0.4,1.7-0.7,3.6-1.1,5.2c0,0,0,0,0,0
			c0.5-0.9,1-1.9,1.5-2.7C2.3,601.6,2.2,600.8,2,600z"/>
		<path fill="none" stroke="#000000" stroke-width="0.75" stroke-miterlimit="10" d="M3.8,600c-0.4-0.8-0.9-1.6-1.3-2.4
			c-0.2,0.8-0.3,1.6-0.5,2.4c0.2,0.8,0.3,1.6,0.5,2.4C2.9,601.6,3.4,600.8,3.8,600z"/>
		<path fill="none" stroke="#000000" stroke-width="0.75" stroke-miterlimit="10" d="M1,1C1,1,1,1,1,1C1,1,1,1,1,1C1,1,1,1,1,1
			C0.9,1,0.9,1,1,1c0,0,0,0.1,0,0.2c5.2,21,14.8,45,28.1,71.3C21.1,43.1,11.6,18.6,1,1z"/>
		<path fill="none" stroke="#000000" stroke-width="0.75" stroke-miterlimit="10" d="M1,605.1c0.6-0.6,1.1-1.3,1.7-1.9
			c-0.1-0.3-0.1-0.6-0.2-0.9C2,603.3,1.5,604.3,1,605.1z"/>
		<path fill="none" stroke="#000000" stroke-width="0.75" stroke-miterlimit="10" d="M4.5,598.7c-0.6-0.7-1.2-1.4-1.8-2
			c-0.1,0.3-0.1,0.6-0.2,0.9c0.4,0.8,0.9,1.6,1.3,2.4C4,599.6,4.3,599.2,4.5,598.7z"/>
		<path fill="none" stroke="#000000" stroke-width="0.75" stroke-miterlimit="10" d="M29.1,72.5C15.7,46.2,6.2,22.1,1,1.2
			C5.1,19.5,8.7,45,11.8,75.8c7.8,29.5,19.8,60.7,35.6,92.8C42.9,132.9,36.7,100.4,29.1,72.5z"/>
		<path fill="none" stroke="#000000" stroke-width="0.75" stroke-miterlimit="10" d="M55.5,303.1c0-47.8-2.9-93.3-8.1-134.4
			c-15.9-32.2-27.8-63.4-35.6-92.8c5.9,59.6,9.5,139.4,9.6,227.3c0,126.8-7.5,237-18.7,293.6c0.6,0.6,1.2,1.3,1.8,2
			C34.8,542.8,55.5,431.5,55.5,303.1z"/>
		<path fill="none" stroke="#000000" stroke-width="0.75" stroke-miterlimit="10" d="M600,600c106.2,0.1,257.2-77.3,389.4-209.6
			c48.3-48.3,89.2-99.1,121.7-149.3c3-33.4,8.3-65.1,15.6-94.2c-43.1,64.7-102.3,136.6-173.2,207.5C821.3,486.8,685.1,578.9,600,600
			z"/>
		<path fill="none" stroke="#000000" stroke-width="0.75" stroke-miterlimit="10" d="M600,600C600,600,600,600,600,600
			C600,600,600,600,600,600C600,600,600,600,600,600z"/>
		<polygon fill="none" stroke="#000000" stroke-width="0.75" stroke-miterlimit="10" points="600,600 600,600 600,600 		"/>
		<polygon fill="none" stroke="#000000" stroke-width="0.75" stroke-miterlimit="10" points="600,600 600,600 600,600 		"/>
		<path fill="none" stroke="#000000" stroke-width="0.75" stroke-miterlimit="10" d="M38.5,53.5c14.1,26.4,25.9,58.1,34.8,93.6
			c43.1,64.7,102.3,136.6,173.2,207.5C378.6,486.7,514.8,578.8,599.8,600c0,0,0.1,0,0.1,0c-65-41.1-187.4-147-319.6-279.3
			C177.9,218.3,91.5,122,38.5,53.5z"/>
		<path fill="none" stroke="#000000" stroke-width="0.75" stroke-miterlimit="10" d="M599.9,600C599.9,600,599.9,600,599.9,600
			C599.9,600,599.9,600,599.9,600C599.9,600,599.9,600,599.9,600C599.9,600,599.9,600,599.9,600z"/>
		<path fill="none" stroke="#000000" stroke-width="0.75" stroke-miterlimit="10" d="M600,600C600,600,599.9,600,600,600
			C599.9,600,599.9,600,600,600C600,600,600,600,600,600C600,600,600,600,600,600z"/>
		<path fill="none" stroke="#000000" stroke-width="0.75" stroke-miterlimit="10" d="M1,1.1C1,1,1,1,1,1.1C1,1,1,1,1,1.1
			c9.2,14.6,22,32.4,37.5,52.4C27.3,32.5,14.7,14.7,1,1.1z"/>
		<polygon fill="none" stroke="#000000" stroke-width="0.75" stroke-miterlimit="10" points="600,600 600,600 600,600 		"/>
		<path fill="none" stroke="#000000" stroke-width="0.75" stroke-miterlimit="10" d="M600,600C600,600,600,600,600,600
			C600,600,599.9,600,600,600C599.9,600,599.9,600,600,600C599.9,600,600,600,600,600z"/>
		<path fill="none" stroke="#000000" stroke-width="0.75" stroke-miterlimit="10" d="M599.9,600C599.9,600,599.9,600,599.9,600
			C599.9,600,599.9,600,599.9,600C599.9,600,599.9,600,599.9,600C599.9,600,599.9,600,599.9,600z"/>
		<path fill="none" stroke="#000000" stroke-width="0.75" stroke-miterlimit="10" d="M600,600C600,600,600,600,600,600
			C600,600,600,600,600,600C600,600,600,600,600,600C600,600,600,600,600,600C600,600,600,600,600,600C600,600,600,600,600,600z"/>
		<path fill="none" stroke="#000000" stroke-width="0.75" stroke-miterlimit="10" d="M600,600C600,600,600,600,600,600
			C600,600,600,600,600,600C600,600,600,600,600,600C600,600,600,600,600,600z"/>
		<path fill="none" stroke="#000000" stroke-width="0.75" stroke-miterlimit="10" d="M600,600L600,600C600,600,600,600,600,600
			C600,600,600,600,600,600C600,600,600,600,600,600C600,600,600,600,600,600C600,600,600,600,600,600L600,600
			C600,600,600,600,600,600L600,600C600,600,600,600,600,600C600,600,600,600,600,600z"/>
		<path fill="none" stroke="#000000" stroke-width="0.75" stroke-miterlimit="10" d="M600,600C600,600,600,600,600,600
			C600,600,600,600,600,600C600,600,600,600,600,600C600,600,600,600,600,600z"/>
		<path fill="none" stroke="#000000" stroke-width="0.75" stroke-miterlimit="10" d="M600,600C600,600,600,600,600,600
			C600,600,600,600,600,600C600,600,600,600,600,600L600,600z"/>
		<path fill="none" stroke="#000000" stroke-width="0.75" stroke-miterlimit="10" d="M1188.2,1124.3c3.1,30.8,6.7,56.3,10.8,74.5
			C1199,1175.9,1195.2,1150.8,1188.2,1124.3z"/>
		<path fill="none" stroke="#000000" stroke-width="0.75" stroke-miterlimit="10" d="M0.9,1c0,23,3.8,48.2,10.9,74.8
			C8.7,45,5.1,19.5,1,1.2C1,1.1,0.9,1.1,0.9,1z"/>
		<polygon fill="none" stroke="#000000" stroke-width="0.75" stroke-miterlimit="10" points="1199.1,1 1199.1,1 1199.1,1 		"/>
		<path fill="none" stroke="#000000" stroke-width="0.75" stroke-miterlimit="10" d="M1199,1199C1199,1199,1199,1199,1199,1199
			C1199,1199,1199,1199,1199,1199C1199,1199,1199,1199,1199,1199z"/>
		<path fill="none" stroke="#000000" stroke-width="0.75" stroke-miterlimit="10" d="M594.8,1C594.8,1,594.8,1,594.8,1
			C594.8,1,594.8,1,594.8,1C594.8,1,594.8,1,594.8,1z"/>
		<polygon fill="none" stroke="#000000" stroke-width="0.75" stroke-miterlimit="10" points="1199.1,1 1199.1,1 1199.1,1 		"/>
		<path fill="none" stroke="#000000" stroke-width="0.75" stroke-miterlimit="10" d="M594.8,1C594.8,1,594.8,1,594.8,1
			C594.8,1,594.8,1,594.8,1C594.8,1,594.8,1,594.8,1z"/>
		<path fill="none" stroke="#000000" stroke-width="0.75" stroke-miterlimit="10" d="M1199.1,1C1199,1,1199,1,1199.1,1
			c-13.8,13.8-26.4,31.5-37.5,52.5C1177,33.5,1189.8,15.7,1199.1,1z"/>
		<path fill="none" stroke="#000000" stroke-width="0.75" stroke-miterlimit="10" d="M1,1C1,1,1,1,1.1,1
			c17.6,10.6,42,20.1,71.3,28.1C46,15.7,21.9,6.2,1,1z"/>
		<path fill="none" stroke="#000000" stroke-width="0.75" stroke-miterlimit="10" d="M600,600.1C600,600.1,600,600.1,600,600.1
			C600,600,600,600,600,600.1C600,600.1,600,600.1,600,600.1z"/>
		<path fill="none" stroke="#000000" stroke-width="0.75" stroke-miterlimit="10" d="M3.8,600c0.2,0.4,0.5,0.8,0.7,1.3
			c0.4-0.4,0.8-0.9,1.2-1.3c-0.4-0.4-0.8-0.9-1.2-1.3C4.3,599.2,4,599.6,3.8,600z"/>
		<path fill="none" stroke="#000000" stroke-width="0.75" stroke-miterlimit="10" d="M600,1196.2c0.4-0.2,0.9-0.5,1.3-0.7
			c-0.4-0.4-0.9-0.8-1.3-1.2c-0.4,0.4-0.9,0.8-1.3,1.2C599.2,1195.7,599.6,1196,600,1196.2z"/>
		<path fill="none" stroke="#000000" stroke-width="0.75" stroke-miterlimit="10" d="M1199.1,0.9L1199.1,0.9
			C1199,1,1199,1,1199.1,0.9C1199,1,1199,1,1199.1,0.9C1199,1,1199,1,1199.1,0.9z"/>
		<path fill="none" stroke="#000000" stroke-width="0.75" stroke-miterlimit="10" d="M1127.7,29.1c29.4-8,53.7-17.5,71.3-28.1
			C1178,6.2,1154,15.7,1127.7,29.1z"/>
		<polygon fill="none" stroke="#000000" stroke-width="0.75" stroke-miterlimit="10" points="600,600 600,600 600,600 		"/>
		<path fill="none" stroke="#000000" stroke-width="0.75" stroke-miterlimit="10" d="M600,600C600,600,600,600,600,600
			C600,600,600,600,600,600C600,600,600,600,600,600z"/>
		<polygon fill="none" stroke="#000000" stroke-width="0.75" stroke-miterlimit="10" points="600,600 600,600 600,600 		"/>
		<path fill="none" stroke="#000000" stroke-width="0.75" stroke-miterlimit="10" d="M600,600C600,600,600,600,600,600
			C600,600,600,600,600,600C600,600,600,600,600,600C600,600,600,600,600,600z"/>
		<path fill="none" stroke="#000000" stroke-width="0.75" stroke-miterlimit="10" d="M600,600C600,600,600,600,600,600
			C600,600,600,600,600,600C600,600,600,600,600,600L600,600z"/>
		<path fill="none" stroke="#000000" stroke-width="0.75" stroke-miterlimit="10" d="M600,600C600,600.1,600,600.1,600,600
			c65.1,41.1,187.5,147,319.7,279.3c102.5,102.5,188.9,198.8,241.9,267.4c-14.1-26.4-25.9-58.1-34.8-93.6
			c-43.1-64.7-102.3-136.7-173.2-207.6C821.3,713.2,685,621.2,600,600z"/>
		<path fill="none" stroke="#000000" stroke-width="0.75" stroke-miterlimit="10" d="M600,600C600,600,600,600,600,600
			C600,600.1,600,600.1,600,600C600,600.1,600,600.1,600,600C600,600,600,600,600,600z"/>
		<path fill="none" stroke="#000000" stroke-width="0.75" stroke-miterlimit="10" d="M600,600c106.2-0.1,257.2,77.4,389.4,209.6
			c48.3,48.3,89.2,99.1,121.8,149.2c-1.8-20.1-2.8-40.7-2.8-61.9c0-129.4,34.9-241.5,86-297c-51-55.5-86-167.5-86-296.9
			c0-21.2,1-41.8,2.8-61.9c-32.6,50.2-73.4,100.9-121.7,149.3C857.2,522.7,706.3,600.1,600,600C600,600,600,600,600,600
			C600,600,600,600,600,600z"/>
		<path fill="none" stroke="#000000" stroke-width="0.75" stroke-miterlimit="10" d="M600,600C600,600,600,600,600,600
			c85,21.1,221.3,113.2,353.6,245.5c70.9,70.9,130.1,142.9,173.2,207.6c-7.3-29.1-12.6-60.8-15.6-94.2
			c-32.6-50.2-73.5-101-121.8-149.2C857.2,677.4,706.2,599.9,600,600z"/>
		<path fill="none" stroke="#000000" stroke-width="0.75" stroke-miterlimit="10" d="M599.9,600C599.9,600,600,600,599.9,600
			C600,600,600,600,599.9,600c-21.1-85-113.1-221.3-245.4-353.5C283.7,175.5,211.7,116.3,147,73.3c-35.4-8.9-67.1-20.7-93.5-34.7
			c68.5,53,164.8,139.4,267.2,241.7C453,412.5,558.9,535,599.9,600z"/>
		<path fill="none" stroke="#000000" stroke-width="0.75" stroke-miterlimit="10" d="M600,600L600,600C600,600,600,600,600,600
			C600,600,600,600,600,600C600,600,600,600,600,600z"/>
		<path fill="none" stroke="#000000" stroke-width="0.75" stroke-miterlimit="10" d="M599.9,600C599.9,600,599.9,600,599.9,600
			C599.9,600,599.9,600,599.9,600C600,600,600,600,599.9,600C600,600,600,600,599.9,600z"/>
		<path fill="none" stroke="#000000" stroke-width="0.75" stroke-miterlimit="10" d="M600,599.9c0.1-106.2-77.3-257.1-209.6-389.4
			c-48.3-48.3-99-89.2-149.2-121.7c-33.4-3-65.1-8.3-94.2-15.6c64.7,43.1,136.7,102.3,207.6,173.2
			C486.8,378.7,578.9,514.9,600,599.9z"/>
		<path fill="none" stroke="#000000" stroke-width="0.75" stroke-miterlimit="10" d="M600,599.9C600,600,600,600,600,599.9
			L600,599.9c0-106.2,77.4-257.1,209.6-389.4c48.3-48.3,99-89.1,149.2-121.7c-20.1,1.8-40.7,2.8-61.9,2.8
			C767.5,91.7,655.5,56.8,600,5.7c-55.5,51-167.5,85.9-296.9,85.9c-21.2,0-41.8-1-61.9-2.8c50.2,32.6,100.9,73.4,149.2,121.7
			C522.7,342.8,600.1,493.7,600,599.9z"/>
		<path fill="none" stroke="#000000" stroke-width="0.75" stroke-miterlimit="10" d="M600,600C600,600,600,600,600,600
			C600,600,600,600,600,600L600,600C600,600,600,600,600,600c21.2-85,113.2-221.3,245.5-353.6c70.9-70.9,142.8-130.1,207.5-173.1
			c-29.1,7.3-60.8,12.6-94.2,15.6c-50.2,32.6-100.9,73.4-149.2,121.7C677.3,342.8,600,493.8,600,600z"/>
		<path fill="none" stroke="#000000" stroke-width="0.75" stroke-miterlimit="10" d="M280.3,320.7
			C412.5,452.9,534.9,558.8,599.9,600c0,0,0,0,0.1,0c-41.1-65-147-187.4-279.2-319.7C218.3,177.9,122,91.5,53.5,38.5
			C32.5,27.4,14.7,14.8,1,1.1c13.7,13.7,26.3,31.4,37.5,52.4C91.5,122,177.9,218.3,280.3,320.7z"/>
		<polygon fill="none" stroke="#000000" stroke-width="0.75" stroke-miterlimit="10" points="600,600 600,600 600,600 		"/>
		<rect x="600" y="600" fill="none" stroke="#000000" stroke-width="0.75" stroke-miterlimit="10" width="0" height="0"/>
		<polygon fill="none" stroke="#000000" stroke-width="0.75" stroke-miterlimit="10" points="600,600 600,600 600,600 		"/>
		<polygon fill="none" stroke="#000000" stroke-width="0.75" stroke-miterlimit="10" points="600,600 599.9,600 600,600 600,600 		
			"/>
		<rect x="600" y="600" fill="none" stroke="#000000" stroke-width="0.75" stroke-miterlimit="10" width="0" height="0"/>
		<polygon fill="none" stroke="#000000" stroke-width="0.75" stroke-miterlimit="10" points="600,600 600,600 600,600 		"/>
		<polygon fill="none" stroke="#000000" stroke-width="0.75" stroke-miterlimit="10" points="600,600 600,600 600,600 600,600 		"/>
		<path fill="none" stroke="#000000" stroke-width="0.75" stroke-miterlimit="10" d="M600,600C600,600,600,600,600,600
			C600,600,600,600,600,600C600,600,600,600,600,600z"/>
		
			<rect x="600" y="600" transform="matrix(0.53 0.848 -0.848 0.53 790.8267 -226.7797)" fill="none" stroke="#000000" stroke-width="0.75" stroke-miterlimit="10" width="0" height="0"/>
		<path fill="none" stroke="#000000" stroke-width="0.75" stroke-miterlimit="10" d="M600,600C600,600,600,600,600,600L600,600
			C600,600,600,600,600,600C600,600,600,600,600,600z"/>
		<path fill="none" stroke="#000000" stroke-width="0.75" stroke-miterlimit="10" d="M600,600C600,600,600,600,600,600
			C600,600,600,600,600,600C600,600,600,600,600,600z"/>
		<polygon fill="none" stroke="#000000" stroke-width="0.75" stroke-miterlimit="10" points="600,600 600,600 600,600 		"/>
		<path fill="none" stroke="#000000" stroke-width="0.75" stroke-miterlimit="10" d="M600,600C600,600,600,600,600,600
			C600,600,600,600,600,600C600,600,600,600,600,600C600,600,600,600,600,600z"/>
		<polygon fill="none" stroke="#000000" stroke-width="0.75" stroke-miterlimit="10" points="600,600 600,600 600,600 		"/>
		<path fill="none" stroke="#000000" stroke-width="0.75" stroke-miterlimit="10" d="M0.9,1C0.9,1,0.9,1,0.9,1C0.9,1,0.9,1,0.9,1
			C0.9,1,0.9,1,0.9,1C1,1,0.9,1,0.9,1z"/>
		<path fill="none" stroke="#000000" stroke-width="0.75" stroke-miterlimit="10" d="M1199,1199C1199,1199,1199,1199,1199,1199
			C1199,1199,1199,1199.1,1199,1199L1199,1199C1199,1199.1,1199,1199.1,1199,1199C1199,1199,1199,1199,1199,1199z"/>
		<polygon fill="none" stroke="#000000" stroke-width="0.75" stroke-miterlimit="10" points="1199,1199.1 1199.1,1199.1 
			1199,1199.1 		"/>
		<path fill="none" stroke="#000000" stroke-width="0.75" stroke-miterlimit="10" d="M1199,1199.1L1199,1199.1
			C1199,1199.1,1199,1199,1199,1199.1C1199,1199,1199,1199,1199,1199.1z"/>
		<path fill="none" stroke="#000000" stroke-width="0.75" stroke-miterlimit="10" d="M1198.7,1199.1h0.3
			c-18.3-4.1-43.9-7.8-74.7-10.8C1150.7,1195.2,1175.7,1199,1198.7,1199.1z"/>
		<path fill="none" stroke="#000000" stroke-width="0.75" stroke-miterlimit="10" d="M1199,1199c-17.6-10.6-41.9-20-71.3-28
			C1154,1184.3,1178.1,1193.9,1199,1199L1199,1199C1199,1199,1199,1199,1199,1199C1199,1199,1199,1199,1199,1199z"/>
		<polygon fill="none" stroke="#000000" stroke-width="0.75" stroke-miterlimit="10" points="1199,1199 1199,1199.1 1199.1,1199.1 
			1199.1,1199.1 1199.1,1199.1 		"/>
		<path fill="none" stroke="#000000" stroke-width="0.75" stroke-miterlimit="10" d="M1031.4,1152.6c32.2,15.9,63.4,27.8,92.8,35.6
			c30.9,3.1,56.5,6.7,74.7,10.8h0c-20.9-5.2-45-14.7-71.3-28.1C1099.8,1163.4,1067.3,1157.1,1031.4,1152.6z"/>
		<path fill="none" stroke="#000000" stroke-width="0.75" stroke-miterlimit="10" d="M1199.1,1199
			C1199.1,1199,1199.1,1199.1,1199.1,1199L1199.1,1199C1199.1,1199,1199.1,1199,1199.1,1199C1199,1199,1199.1,1199,1199.1,1199z"/>
		<path fill="none" stroke="#000000" stroke-width="0.75" stroke-miterlimit="10" d="M1197.5,602.4c0.5,0.9,1,1.9,1.5,2.8v0
			c-0.4-1.6-0.7-3.4-1.1-5.1C1197.8,600.8,1197.7,601.6,1197.5,602.4z"/>
		<path fill="none" stroke="#000000" stroke-width="0.75" stroke-miterlimit="10" d="M597.6,1197.5c0.8,0.2,1.6,0.3,2.4,0.5
			c0.8-0.2,1.6-0.3,2.4-0.5c-0.8-0.4-1.6-0.9-2.4-1.3C599.2,1196.6,598.4,1197.1,597.6,1197.5z"/>
		<path fill="none" stroke="#000000" stroke-width="0.75" stroke-miterlimit="10" d="M1197.3,603.3c0.6,0.6,1.1,1.3,1.7,1.9v0
			c-0.5-0.9-1-1.9-1.5-2.8C1197.5,602.7,1197.4,603,1197.3,603.3z"/>
		<path fill="none" stroke="#000000" stroke-width="0.75" stroke-miterlimit="10" d="M1199,1199C1199,1199,1199,1199,1199,1199
			C1199.1,1199,1199.1,1199,1199,1199L1199,1199c0-0.1,0-0.1,0-0.1C1199,1198.9,1199,1199,1199,1199z"/>
		<polygon fill="none" stroke="#000000" stroke-width="0.75" stroke-miterlimit="10" points="1199.1,1199.1 1199.1,1199.1 
			1199.1,1199.1 1199.1,1199.1 1199.1,1199 		"/>
		<path fill="none" stroke="#000000" stroke-width="0.75" stroke-miterlimit="10" d="M146.9,1126.7c-35.4,8.9-67.1,20.7-93.6,34.8
			c-20,15.5-37.7,28.2-52.4,37.5h0c17.6-10.6,41.9-20.1,71.3-28.1C95.5,1159.2,120.6,1144.2,146.9,1126.7z"/>
		<path fill="none" stroke="#000000" stroke-width="0.75" stroke-miterlimit="10" d="M1,1199.1L1,1199.1c20.9-5.2,45-14.7,71.3-28.1
			C42.9,1179,18.6,1188.5,1,1199.1z"/>
		<path fill="none" stroke="#000000" stroke-width="0.75" stroke-miterlimit="10" d="M1,1199.1L1,1199.1c14.7-9.3,32.4-22,52.4-37.5
			C32.4,1172.7,14.6,1185.3,1,1199.1z"/>
		<path fill="none" stroke="#000000" stroke-width="0.75" stroke-miterlimit="10" d="M73.3,1053.1c-17.5,26.3-32.4,51.3-44.2,74.6
			c-8,29.4-17.5,53.8-28.1,71.4h0c9.3-14.7,22.1-32.5,37.6-52.5C52.6,1120.1,64.4,1088.5,73.3,1053.1z"/>
		<path fill="none" stroke="#000000" stroke-width="0.75" stroke-miterlimit="10" d="M168.6,1152.6c-35.9,4.5-68.4,10.7-96.3,18.4
			c-26.3,13.3-50.4,22.9-71.3,28.1h0c18.3-4.1,43.9-7.8,74.8-10.8C105.3,1180.4,136.5,1168.5,168.6,1152.6z"/>
		<path fill="none" stroke="#000000" stroke-width="0.75" stroke-miterlimit="10" d="M0.9,1199.1L0.9,1199.1
			c13.7-13.7,26.4-31.5,37.6-52.5C23,1166.6,10.3,1184.3,0.9,1199.1z"/>
		<path fill="none" stroke="#000000" stroke-width="0.75" stroke-miterlimit="10" d="M320.7,919.7C453,787.5,558.8,665.1,599.9,600
			c0,0,0,0,0,0c-65,41.2-187.4,147-319.7,279.3C177.9,981.7,91.5,1078,38.5,1146.5c-11.2,21-23.8,38.8-37.6,52.5h0
			c13.7-13.7,31.4-26.3,52.4-37.5C121.9,1108.6,218.3,1022.1,320.7,919.7z"/>
		<path fill="none" stroke="#000000" stroke-width="0.75" stroke-miterlimit="10" d="M594.9,1199.1h10.3c-1.6-0.4-3.4-0.7-5.1-1.1
			C598.3,1198.3,596.5,1198.7,594.9,1199.1z"/>
		<path fill="none" stroke="#000000" stroke-width="0.75" stroke-miterlimit="10" d="M597.6,1197.5c-0.9,0.5-1.9,1-2.8,1.6h0.1
			c1.6-0.4,3.4-0.7,5.1-1.1C599.2,1197.8,598.5,1197.7,597.6,1197.5z"/>
		<path fill="none" stroke="#000000" stroke-width="0.75" stroke-miterlimit="10" d="M1,1199.1h0.7c22.8-0.1,47.8-3.9,74.1-10.8
			C44.9,1191.3,19.3,1194.9,1,1199.1z"/>
		<path fill="none" stroke="#000000" stroke-width="0.75" stroke-miterlimit="10" d="M600,1198c1.7,0.4,3.5,0.7,5.1,1.1h0.1
			c-0.9-0.5-1.9-1-2.8-1.6C601.6,1197.7,600.8,1197.8,600,1198z"/>
		<path fill="none" stroke="#000000" stroke-width="0.75" stroke-miterlimit="10" d="M602.4,1197.5c0.9,0.5,1.9,1,2.8,1.6h0
			c-0.6-0.6-1.3-1.2-1.9-1.7C603,1197.4,602.7,1197.4,602.4,1197.5z"/>
		<path fill="none" stroke="#000000" stroke-width="0.75" stroke-miterlimit="10" d="M596.7,1197.3c-0.6,0.6-1.3,1.2-1.9,1.7h0
			c0.9-0.5,1.9-1,2.8-1.6C597.3,1197.4,597,1197.4,596.7,1197.3z"/>
		<polygon fill="none" stroke="#000000" stroke-width="0.75" stroke-miterlimit="10" points="1199.1,0.9 1199.1,0.9 1199.1,0.9 		
			"/>
		<path fill="none" stroke="#000000" stroke-width="0.75" stroke-miterlimit="10" d="M605.2,0.9L605.2,0.9
			C605.2,0.9,605.2,1,605.2,0.9C605.2,1,605.2,0.9,605.2,0.9z"/>
		<path fill="none" stroke="#000000" stroke-width="0.75" stroke-miterlimit="10" d="M605.2,0.9L605.2,0.9
			C605.2,0.9,605.2,1,605.2,0.9C605.2,1,605.2,0.9,605.2,0.9z"/>
		<path fill="none" stroke="#000000" stroke-width="0.75" stroke-miterlimit="10" d="M0.9,1199.1L0.9,1199.1
			c10.6-17.6,20.1-42,28.1-71.4C15.7,1154,6.2,1178.1,0.9,1199.1z"/>
		<polygon fill="none" stroke="#000000" stroke-width="0.75" stroke-miterlimit="10" points="1199.1,0.9 1199.1,0.9 1199.1,0.9 		
			"/>
		<rect x="1199.1" y="0.9" fill="none" stroke="#000000" stroke-width="0.75" stroke-miterlimit="10" width="0" height="0"/>
		<path fill="none" stroke="#000000" stroke-width="0.75" stroke-miterlimit="10" d="M594.9,0.9L594.9,0.9
			C594.8,0.9,594.8,1,594.9,0.9C594.8,1,594.9,0.9,594.9,0.9z"/>
		<path fill="none" stroke="#000000" stroke-width="0.75" stroke-miterlimit="10" d="M75.9,11.8C49.3,4.8,24,0.9,0.9,0.9
			c0,0,0,0,0,0C19.3,5.1,44.9,8.8,75.9,11.8z"/>
		<polygon fill="none" stroke="#000000" stroke-width="0.75" stroke-miterlimit="10" points="0.9,0.9 0.9,0.9 0.9,0.9 		"/>
		<polygon fill="none" stroke="#000000" stroke-width="0.75" stroke-miterlimit="10" points="0.9,0.9 0.9,0.9 0.9,0.9 		"/>
		<polygon fill="none" stroke="#000000" stroke-width="0.75" stroke-miterlimit="10" points="1199.1,0.9 1199.1,0.9 1199.1,0.9 		
			"/>
		<polygon fill="none" stroke="#000000" stroke-width="0.75" stroke-miterlimit="10" points="0.9,0.9 0.9,0.9 0.9,0.9 		"/>
		<polygon fill="none" stroke="#000000" stroke-width="0.75" stroke-miterlimit="10" points="1199.1,1 1199.1,1 1199.1,1 		"/>
		<path fill="none" stroke="#000000" stroke-width="0.75" stroke-miterlimit="10" d="M1188.2,75.9c7-26.5,10.9-51.6,10.9-74.6V1
			c0,0,0,0.1,0,0.2C1194.9,19.5,1191.2,45,1188.2,75.9z"/>
		<polygon fill="none" stroke="#000000" stroke-width="0.75" stroke-miterlimit="10" points="1199.1,0.9 1199.1,0.9 1199.1,0.9 		
			"/>
		<polygon fill="none" stroke="#000000" stroke-width="0.75" stroke-miterlimit="10" points="1199.1,1 1199.1,1 1199.1,1 1199.1,1 
			1199.1,1 		"/>
		<polygon fill="none" stroke="#000000" stroke-width="0.75" stroke-miterlimit="10" points="1199.1,1 1199.1,1 1199.1,1 		"/>
		<path fill="none" stroke="#000000" stroke-width="0.75" stroke-miterlimit="10" d="M1199.1,594.8L1199.1,594.8
			C1199.1,594.8,1199.1,594.8,1199.1,594.8C1199.1,594.8,1199.1,594.8,1199.1,594.8z"/>
		<path fill="none" stroke="#000000" stroke-width="0.75" stroke-miterlimit="10" d="M1199.1,594.8
			C1199.1,594.8,1199.1,594.8,1199.1,594.8C1199.1,594.8,1199,594.8,1199.1,594.8C1199,594.9,1199.1,594.8,1199.1,594.8z"/>
		<path fill="none" stroke="#000000" stroke-width="0.75" stroke-miterlimit="10" d="M1199.1,1c0,0.1,0,0.1,0,0.2
			C1199,1.1,1199.1,1.1,1199.1,1L1199.1,1C1199.1,1,1199.1,1,1199.1,1C1199.1,1,1199.1,1,1199.1,1z"/>
		<polygon fill="none" stroke="#000000" stroke-width="0.75" stroke-miterlimit="10" points="1199.1,0.9 1199.1,0.9 1199.1,0.9 		
			"/>
		<polygon fill="none" stroke="#000000" stroke-width="0.75" stroke-miterlimit="10" points="1199.1,1 1199.1,1 1199.1,1 1199.1,1 
			1199.1,1 		"/>
		<polygon fill="none" stroke="#000000" stroke-width="0.75" stroke-miterlimit="10" points="1199.1,0.9 1199.1,0.9 1199.1,0.9 		
			"/>
		<rect x="1199.1" y="0.9" fill="none" stroke="#000000" stroke-width="0.75" stroke-miterlimit="10" width="0" height="0"/>
		<path fill="none" stroke="#000000" stroke-width="0.75" stroke-miterlimit="10" d="M1199.1,1C1199.1,1,1199.1,1,1199.1,1
			C1199.1,1,1199.1,1,1199.1,1L1199.1,1L1199.1,1C1199.1,1,1199.1,1,1199.1,1z"/>
		<path fill="none" stroke="#000000" stroke-width="0.75" stroke-miterlimit="10" d="M1198,600c0.4,1.7,0.7,3.5,1.1,5.1v-10.3
			c0,0,0,0,0,0C1198.7,596.4,1198.4,598.3,1198,600z"/>
		<polygon fill="none" stroke="#000000" stroke-width="0.75" stroke-miterlimit="10" points="1199.1,1199.1 1199.1,1199.1 
			1199.1,1199.1 		"/>
		<path fill="none" stroke="#000000" stroke-width="0.75" stroke-miterlimit="10" d="M1144.5,303.1c0,128.4,20.7,239.8,51,295.6
			c0.6-0.6,1.2-1.4,1.8-2c-11.1-56.6-18.7-166.8-18.6-293.7c0-87.8,3.6-167.5,9.5-227.1c-7.8,29.4-19.7,60.6-35.6,92.7
			C1147.4,209.8,1144.5,255.2,1144.5,303.1z"/>
		<path fill="none" stroke="#000000" stroke-width="0.75" stroke-miterlimit="10" d="M1152.6,168.6c15.8-32.1,27.8-63.3,35.6-92.7
			c3.1-30.9,6.7-56.5,10.8-74.8c-5.2,21-14.8,45-28.1,71.3C1163.3,100.4,1157.1,132.9,1152.6,168.6z"/>
		<rect x="1199.1" y="0.9" fill="none" stroke="#000000" stroke-width="0.75" stroke-miterlimit="10" width="0" height="0"/>
		<path fill="none" stroke="#000000" stroke-width="0.75" stroke-miterlimit="10" d="M1195.5,601.3c0.6,0.7,1.2,1.4,1.8,2
			c0.1-0.3,0.1-0.6,0.2-0.9c-0.4-0.8-0.9-1.6-1.3-2.4C1196,600.4,1195.7,600.9,1195.5,601.3z"/>
		<path fill="none" stroke="#000000" stroke-width="0.75" stroke-miterlimit="10" d="M1199,594.9c-0.6,0.6-1.1,1.3-1.7,1.9
			c0.1,0.3,0.1,0.6,0.2,0.9C1198,596.7,1198.5,595.7,1199,594.9z"/>
		<path fill="none" stroke="#000000" stroke-width="0.75" stroke-miterlimit="10" d="M1199,1.2c0-0.1,0-0.1,0-0.2
			c-10.6,17.6-20.1,42.1-28.1,71.5C1184.3,46.2,1193.8,22.1,1199,1.2z"/>
		<path fill="none" stroke="#000000" stroke-width="0.75" stroke-miterlimit="10" d="M1198,600c0.4-1.7,0.7-3.6,1.1-5.2c0,0,0,0,0,0
			c-0.5,0.9-1,1.9-1.5,2.8C1197.7,598.4,1197.8,599.2,1198,600z"/>
		<path fill="none" stroke="#000000" stroke-width="0.75" stroke-miterlimit="10" d="M1196.2,600c0.4,0.8,0.9,1.6,1.3,2.4
			c0.2-0.8,0.3-1.6,0.5-2.4c-0.2-0.8-0.3-1.6-0.5-2.4C1197.1,598.4,1196.6,599.2,1196.2,600z"/>
		<path fill="none" stroke="#000000" stroke-width="0.75" stroke-miterlimit="10" d="M1199,1C1199,1,1199,1,1199,1
			C1199.1,1,1199.1,1,1199,1C1199.1,0.9,1199.1,0.9,1199,1C1199,1,1199,1,1199,1z"/>
		<path fill="none" stroke="#000000" stroke-width="0.75" stroke-miterlimit="10" d="M1146.5,38.6c21-11.2,38.8-23.8,52.5-37.5
			c0,0,0.1-0.1,0.1-0.1v0c0,0,0,0-0.1,0C1184.3,10.3,1166.5,23.1,1146.5,38.6z"/>
		<rect x="1199.1" y="0.9" fill="none" stroke="#000000" stroke-width="0.75" stroke-miterlimit="10" width="0" height="0"/>
		<polygon fill="none" stroke="#000000" stroke-width="0.75" stroke-miterlimit="10" points="1199.1,1 1199.1,1 1199.1,1 		"/>
		<path fill="none" stroke="#000000" stroke-width="0.75" stroke-miterlimit="10" d="M1199.1,1C1199.1,1,1199.1,1,1199.1,1
			C1199.1,1,1199.1,1,1199.1,1C1199,1,1199,1,1199.1,1C1199,1,1199,1,1199.1,1z"/>
		<path fill="none" stroke="#000000" stroke-width="0.75" stroke-miterlimit="10" d="M1161.5,53.5c-14.1,26.4-25.9,58.1-34.8,93.5
			c17.5-26.2,32.4-51.3,44.1-74.5c8-29.5,17.5-53.9,28.1-71.5c0,0,0,0,0,0c0,0,0,0,0,0C1189.8,15.7,1177,33.5,1161.5,53.5z"/>
		<path fill="none" stroke="#000000" stroke-width="0.75" stroke-miterlimit="10" d="M1196.2,600c0.4-0.8,0.9-1.6,1.3-2.4
			c-0.1-0.3-0.1-0.6-0.2-0.9c-0.6,0.6-1.2,1.3-1.8,2C1195.7,599.1,1196,599.6,1196.2,600z"/>
		<path fill="none" stroke="#000000" stroke-width="0.75" stroke-miterlimit="10" d="M1199,1199C1199,1199,1199,1199,1199,1199
			C1199,1199,1199,1199,1199,1199C1199,1199,1199,1199,1199,1199C1199,1199,1199,1199,1199,1199z"/>
		<path fill="none" stroke="#000000" stroke-width="0.75" stroke-miterlimit="10" d="M47.4,1031.3c-15.9,32.2-27.8,63.4-35.6,92.9
			c-3.1,30.9-6.7,56.5-10.8,74.8h0c5.2-20.9,14.8-45,28.1-71.4C36.7,1099.8,42.9,1067.2,47.4,1031.3z"/>
		<path fill="none" stroke="#000000" stroke-width="0.75" stroke-miterlimit="10" d="M958.9,1111.2c24.5,15.9,48.8,29.7,72.6,41.4
			c35.9,4.5,68.4,10.7,96.3,18.3c-23.3-11.8-48.4-26.7-74.6-44.2C1024,1119.5,992.3,1114.2,958.9,1111.2z"/>
		<path fill="none" stroke="#000000" stroke-width="0.75" stroke-miterlimit="10" d="M1053.1,1126.8c26.3,17.5,51.4,32.4,74.6,44.2
			c29.3,8,53.7,17.5,71.3,28c-14.7-9.3-32.4-22-52.4-37.5C1120.2,1147.5,1088.5,1135.7,1053.1,1126.8z"/>
		<path fill="none" stroke="#000000" stroke-width="0.75" stroke-miterlimit="10" d="M600,1196.2c0.8,0.4,1.6,0.9,2.4,1.3
			c0.3-0.1,0.6-0.1,0.9-0.2c-0.6-0.6-1.3-1.2-2-1.8C600.9,1195.7,600.4,1196,600,1196.2z"/>
		<path fill="none" stroke="#000000" stroke-width="0.75" stroke-miterlimit="10" d="M601.3,1195.5c0.7,0.6,1.4,1.2,2,1.8
			c56.6-11.1,166.8-18.7,293.6-18.6c87.9,0,167.7,3.6,227.3,9.6c-29.5-7.8-60.6-19.7-92.8-35.6c-41.2-5.2-86.6-8.1-134.5-8.1
			C768.5,1144.6,657.2,1165.2,601.3,1195.5z"/>
		<path fill="none" stroke="#000000" stroke-width="0.75" stroke-miterlimit="10" d="M896.9,1108.4c-129.4,0-241.4,34.9-296.9,85.9
			c0.4,0.4,0.9,0.8,1.3,1.2c55.9-30.3,167.2-50.9,295.6-50.9c47.9,0,93.3,2.9,134.5,8.1c-23.8-11.7-48.1-25.6-72.6-41.4
			C938.8,1109.4,918.1,1108.4,896.9,1108.4z"/>
		<path fill="none" stroke="#000000" stroke-width="0.75" stroke-miterlimit="10" d="M1198.9,1198.9
			C1198.9,1198.9,1198.9,1198.9,1198.9,1198.9c0.1,0.1,0.1,0.1,0.1,0.2c0,0,0,0,0,0C1199,1199,1199,1198.9,1198.9,1198.9z"/>
		<path fill="none" stroke="#000000" stroke-width="0.75" stroke-miterlimit="10" d="M1144.5,896.9c0,47.9,2.9,93.4,8.1,134.5
			c15.9,32.2,27.8,63.4,35.6,92.9c-5.9-59.6-9.6-139.5-9.6-227.4c0-126.9,7.6-237.1,18.7-293.7c-0.6-0.6-1.2-1.3-1.8-2
			C1165.2,657.2,1144.6,768.5,1144.5,896.9z"/>
		<path fill="none" stroke="#000000" stroke-width="0.75" stroke-miterlimit="10" d="M1199,1199C1199,1199,1199,1199,1199,1199
			c-5.2-20.9-14.7-44.9-28.1-71.2C1179,1157.1,1188.5,1181.4,1199,1199z"/>
		<path fill="none" stroke="#000000" stroke-width="0.75" stroke-miterlimit="10" d="M1171,1127.8c13.3,26.3,22.9,50.3,28.1,71.2
			c0,0,0-0.1,0-0.1c-4.1-18.3-7.8-43.7-10.8-74.5c-7.8-29.5-19.7-60.7-35.6-92.9C1157.1,1067.3,1163.4,1099.8,1171,1127.8z"/>
		<polygon fill="none" stroke="#000000" stroke-width="0.75" stroke-miterlimit="10" points="1199,1199 1199,1199 1199,1199 		"/>
		<path fill="none" stroke="#000000" stroke-width="0.75" stroke-miterlimit="10" d="M1199,1199C1199,1199,1199.1,1199,1199,1199
			C1199.1,1199,1199,1199,1199,1199C1199,1199,1199,1199,1199,1199C1199,1199,1199,1199,1199,1199z"/>
		<polygon fill="none" stroke="#000000" stroke-width="0.75" stroke-miterlimit="10" points="1199,1199 1199.1,1199.1 1199.1,1199 
			1199,1199 		"/>
		<path fill="none" stroke="#000000" stroke-width="0.75" stroke-miterlimit="10" d="M1146.6,1161.6c20,15.4,37.7,28.2,52.4,37.5
			c0,0,0,0,0,0c0,0,0,0,0-0.1C1185.3,1185.3,1167.6,1172.7,1146.6,1161.6z"/>
		<path fill="none" stroke="#000000" stroke-width="0.75" stroke-miterlimit="10" d="M1,1.2C1,1.1,1,1,0.9,1c0,0,0,0,0,0v0
			c0,0,0,0,0,0C0.9,1.1,1,1.1,1,1.2z"/>
		<path fill="none" stroke="#000000" stroke-width="0.75" stroke-miterlimit="10" d="M0.9,1L0.9,1C0.9,1,0.9,1,0.9,1
			C0.9,1,0.9,1,0.9,1z"/>
		<rect x="0.9" y="0.9" fill="none" stroke="#000000" stroke-width="0.75" stroke-miterlimit="10" width="0" height="0"/>
		<polygon fill="none" stroke="#000000" stroke-width="0.75" stroke-miterlimit="10" points="0.9,1 0.9,1 0.9,1 0.9,1 		"/>
		
			<rect x="0.9" y="1" transform="matrix(0.4856 0.8742 -0.8742 0.4856 1.3173 -0.331)" fill="none" stroke="#000000" stroke-width="0.75" stroke-miterlimit="10" width="0" height="0"/>
		<path fill="none" stroke="#000000" stroke-width="0.75" stroke-miterlimit="10" d="M2.7,596.7c-0.6-0.6-1.2-1.3-1.8-1.9
			c0.5,0.9,1,1.9,1.6,2.8C2.6,597.3,2.6,597.1,2.7,596.7z"/>
		<path fill="none" stroke="#000000" stroke-width="0.75" stroke-miterlimit="10" d="M2.5,597.7c-0.5-0.9-1-2-1.6-2.8
			c0.4,1.6,0.7,3.5,1.1,5.2C2.2,599.2,2.3,598.5,2.5,597.7z"/>
		<path fill="none" stroke="#000000" stroke-width="0.75" stroke-miterlimit="10" d="M0.9,605.2C0.9,605.2,0.9,605.2,0.9,605.2
			C1,605.2,1,605.2,0.9,605.2C1,605.2,1,605.2,0.9,605.2z"/>
		<path fill="none" stroke="#000000" stroke-width="0.75" stroke-miterlimit="10" d="M1,1C0.9,1,0.9,1,1,1C0.9,0.9,0.9,0.9,1,1
			C0.9,1,0.9,1,1,1C0.9,1,1,1,1,1z"/>
		<path fill="none" stroke="#000000" stroke-width="0.75" stroke-miterlimit="10" d="M0.9,1199.1L0.9,1199.1
			c4.1-18.3,7.8-43.9,10.8-74.8C4.8,1150.8,0.9,1176,0.9,1199.1z"/>
		<path fill="none" stroke="#000000" stroke-width="0.75" stroke-miterlimit="10" d="M2,600c-0.4-1.7-0.7-3.6-1.1-5.2v10.4
			c0,0,0,0,0,0C1.3,603.6,1.7,601.7,2,600z"/>
		<path fill="none" stroke="#000000" stroke-width="0.75" stroke-miterlimit="10" d="M0.9,605.2L0.9,605.2
			C0.9,605.2,0.9,605.2,0.9,605.2C0.9,605.2,0.9,605.2,0.9,605.2z"/>
		<path fill="none" stroke="#000000" stroke-width="0.75" stroke-miterlimit="10" d="M603.3,2.7c0.6-0.6,1.3-1.2,1.9-1.8
			c-0.9,0.5-1.9,1-2.8,1.6C602.7,2.6,603,2.7,603.3,2.7z"/>
		<path fill="none" stroke="#000000" stroke-width="0.75" stroke-miterlimit="10" d="M896.9,55.5c47.8,0,93.3-2.9,134.4-8.1
			c32.1-15.9,63.3-27.8,92.8-35.6c-59.6,5.9-139.3,9.6-227.2,9.5c-126.8,0-237-7.5-293.6-18.6c-0.6,0.6-1.3,1.2-2,1.8
			C657.2,34.8,768.6,55.5,896.9,55.5z"/>
		<path fill="none" stroke="#000000" stroke-width="0.75" stroke-miterlimit="10" d="M1127.7,29.1C1154,15.7,1178,6.2,1199,1
			c0,0,0.1,0,0.1,0c0,0,0,0,0,0c-18.3,4.1-44,7.8-75,10.9c-29.4,7.8-60.6,19.7-92.8,35.6C1067.2,42.9,1099.7,36.7,1127.7,29.1z"/>
		<rect x="1199.1" y="0.9" fill="none" stroke="#000000" stroke-width="0.75" stroke-miterlimit="10" width="0" height="0"/>
		<path fill="none" stroke="#000000" stroke-width="0.75" stroke-miterlimit="10" d="M600,3.8c0.4,0.2,0.9,0.5,1.3,0.7
			c0.7-0.6,1.4-1.2,2-1.8c-0.3-0.1-0.6-0.1-0.9-0.2C601.6,3,600.8,3.4,600,3.8z"/>
		<path fill="none" stroke="#000000" stroke-width="0.75" stroke-miterlimit="10" d="M1199.1,0.9c-23.1,0-48.3,3.8-75,10.9
			C1155.1,8.7,1180.7,5.1,1199.1,0.9C1199.1,0.9,1199.1,0.9,1199.1,0.9z"/>
		<rect x="1199.1" y="0.9" fill="none" stroke="#000000" stroke-width="0.75" stroke-miterlimit="10" width="0" height="0"/>
		<path fill="none" stroke="#000000" stroke-width="0.75" stroke-miterlimit="10" d="M594.8,1c0.6,0.6,1.3,1.1,1.9,1.7
			c0.3-0.1,0.6-0.1,0.9-0.2C596.7,2,595.7,1.5,594.8,1z"/>
		<path fill="none" stroke="#000000" stroke-width="0.75" stroke-miterlimit="10" d="M1.1,1C1,1,1,1,1,1c21,5.2,45.1,14.8,71.4,28.1
			c27.9,7.6,60.4,13.8,96.2,18.3c-32.1-15.9-63.3-27.8-92.7-35.6c-31-3.1-56.7-6.7-75-10.9c0,0,0,0,0,0C1,1,1,1,1.1,1z"/>
		<path fill="none" stroke="#000000" stroke-width="0.75" stroke-miterlimit="10" d="M600,3.8c-0.8-0.4-1.6-0.9-2.4-1.3
			c-0.3,0.1-0.6,0.1-0.9,0.2c0.6,0.6,1.3,1.2,2,1.8C599.2,4.3,599.6,4.1,600,3.8z"/>
		<path fill="none" stroke="#000000" stroke-width="0.75" stroke-miterlimit="10" d="M303.1,55.5c128.4,0,239.7-20.7,295.6-50.9
			c-0.7-0.6-1.4-1.2-2-1.8c-56.6,11.1-166.8,18.6-293.6,18.6c-87.8,0-167.5-3.6-227.2-9.5c29.4,7.8,60.6,19.7,92.7,35.6
			C209.8,52.6,255.2,55.5,303.1,55.5z"/>
		<path fill="none" stroke="#000000" stroke-width="0.75" stroke-miterlimit="10" d="M600,3.8c0.8-0.4,1.6-0.9,2.4-1.3
			c-0.8-0.2-1.6-0.3-2.4-0.5c-0.8,0.2-1.6,0.3-2.4,0.5C598.4,3,599.2,3.4,600,3.8z"/>
		<path fill="none" stroke="#000000" stroke-width="0.75" stroke-miterlimit="10" d="M605.2,1c-1.6,0.4-3.5,0.7-5.2,1.1
			c0.8,0.2,1.6,0.3,2.4,0.5C603.3,2,604.3,1.5,605.2,1z"/>
		<path fill="none" stroke="#000000" stroke-width="0.75" stroke-miterlimit="10" d="M600,2c-1.7-0.4-3.6-0.7-5.2-1.1c0,0,0,0,0,0
			c0.9,0.5,1.9,1,2.8,1.5C598.4,2.4,599.2,2.2,600,2z"/>
	</g>
</g>
</svg>
